<svg xml:space="preserve" enable-background="new 0 0 257 257" viewBox="0 0 257 257" y="0px" x="0px" xmlns:xlink="http://www.w3.org/1999/xlink" xmlns="http://www.w3.org/2000/svg" version="1.1">
<g id="Wires">
	<g>
		<g>
			<path d="M68.5,168.2l0.1,0.3l0,0.3l-0.2,0.2l-0.2,0.3l0,0.3l0,0.3l0.2,0.2l0.1,0.2l0.8,1.1l0.1,0.2l0.4,0.5l0.1,0.2l0.3,0.2
				l0.4,0.1l0.5,0l0.4,0.1l0.3,0.2l0.5,0.6l0.1,0.2l0.3,0.4l0.1,0.3l-0.3,0.3l-0.3,0.1l-0.6,0.1l-0.2,0.1l-0.2,0l-0.6,0.1l-0.5,0
				l-0.3,0.1l-0.3,0l-0.3,0.1l-3.3,0.5l-0.3,0.1l-0.3,0l-0.3,0.1l-0.3,0l-1.4,0.2l-0.2,0l-0.3,0.1l-0.3,0l-0.3-0.1l-0.4-0.3
				l-0.1-0.5l0.1-0.3l0.3-0.5l0.2-0.2l0.1-0.3l0.2-0.2l1.1-1.8l0.2-0.2l0.3-0.5l0.1-0.2l0.1-0.2l0.2-0.2l0.1-0.3l0.1-0.2l0.8-1.1
				l0.3-0.5l0.3-0.4l0.4-0.7l0.3-0.5l0.2-0.3l0.3-0.2l0.3,0.3l0.3,0.4l0.1,0.2l0.3,0.4L68.5,168.2z M66.9,172.1l-0.2-0.1l-0.2,0.1
				l-0.9,1.4l0,0.2l0.2,0.1l1.6-0.3l0.2-0.2l0-0.2l-0.2-0.3l-0.1-0.3L66.9,172.1z"/>
			<path d="M65.7,163l0.1,0.6l0,0.3v0.3l-0.1,0.3l-0.1,0.6l-0.1,0.3l-0.1,0.3l-0.4,0.5l-0.2,0.2l-0.2,0.2l-0.2,0.2l-0.3,0l-0.2-0.2
				l-0.5-0.9l-0.1-0.3l-0.1-0.2l0-0.3l0.3-0.6l0-0.3l0-0.3l-0.2-0.7l-0.1-0.2l-0.2-0.4l-0.4-0.3l-0.3-0.1l-0.4,0l-0.3,0.2l-0.1,0.2
				l0,0.6l0.7,2.1l0.1,0.5l-0.1,1.1l-0.4,0.7l-0.3,0.4L61,168l-0.4,0.2l-0.6,0.3l-0.8,0.1l-0.8-0.2l-0.7-0.4l-0.5-0.3l-0.4-0.4
				l-0.1-0.2l-0.1-0.2l-0.2-0.2l-0.4-1l-0.1-0.5l-0.1-0.8l0.2-1.1l0.2-0.5l0.5-0.7l0.2-0.1l0.2-0.2l0.3,0l0.3,0.2l0.1,0.2l0.1,0.3
				l0.1,0.4l0.3,0.6l0,0.4l-0.2,0.3l-0.1,0.3l0,0.3l0,0.3l0.1,0.4l0.2,0.4l0.2,0.2l0.2,0.1l0.2,0.1l0.2,0.1l0.4-0.1l0.4-0.2l0.1-0.3
				l0-0.6l-0.2-0.7l-0.2-0.4l-0.1-0.3l-0.1-0.3l-0.1-0.3l-0.2-1.1l0-0.3l0-0.3l0.1-0.3l0.2-0.5l0.1-0.2l0.6-0.5l0.4-0.2l0.7-0.2
				l0.3,0l0.3,0l0.3,0l0.2,0l0.6,0.2l0.9,0.6l0.2,0.2l0.1,0.2l0.2,0.2l0.2,0.2l0.2,0.2l0.1,0.2l0.5,1L65.7,163z"/>
			<path d="M62.5,156.1l-0.4,0.3l-0.7,0.2l-0.3,0.1l-0.3,0.1l-0.2,0.1l-0.5,0.2l-0.6,0.1l-0.2,0.1l-0.5,0.1l-0.3,0.1l-0.6,0.1
				l-0.2,0.1l-1.7,0.5l-0.3,0.1l-0.3,0l-1.6,0.5l-0.2,0l-0.3,0l-0.3-0.2l-0.1-0.3l-0.1-0.3l-0.1-0.2l-0.1-0.7l0-0.4l0.2-0.2l0.6-0.1
				l0.4-0.1l0.3-0.1l0.2-0.1l1-0.3l0.3-0.1l0.3-0.2l0.1-0.3l-0.1-0.3l-0.2-0.2l-0.1-0.3l-0.2-0.2l-0.5-0.4l-0.5-0.2l-0.3,0l-0.2,0
				l-0.9,0.2l-0.3,0.1l-0.3,0l-0.3,0.1l-0.3,0l-0.2-0.2l-0.1-0.4l-0.1-0.4l-0.2-0.4l-0.1-0.4l0-0.3l0.2-0.2l0.8-0.2l0.3-0.1l0.9-0.2
				l0.8,0l0.3,0l0.4,0.1l0.7,0.3l0.5,0.3l0.3,0.1l0.3-0.1l0.6-0.7l0.2-0.2l0.2-0.2l0.1-0.2l0.6-0.6l0.2-0.2l1.3-1.3l0.3,0l0.2,0.3
				l0.1,0.3l0.1,0.2l0.4,1.3l0,0.3l-0.2,0.3l-0.1,0.2l-0.2,0.2l-0.2,0.2l-0.4,0.4l-0.1,0.2l-0.2,0.2l-0.7,0.8l-0.3,0.2l-0.2,0.2
				l-0.1,0.4l0.1,0.4l0.3,0.3l0.3,0.1l1.4-0.5l0.3,0l1.1-0.4l0.3,0.1l0.2,0.2l0.2,0.4l0.1,0.4l0.3,0.8L62.5,156.1z"/>
			<path d="M58.3,134.8l-0.1,0.3l-0.2,0.3l-0.2,0.1l-0.3,0.1l-0.2,0.3l-0.1,0.3l0.1,0.3l0,0.3l0.1,1.4l0,0.3l0.1,0.6l0,0.3l0.2,0.3
				l0.3,0.2l0.5,0.2l0.3,0.2l0.1,0.3l0.1,0.8l0,0.3l0.1,0.5l-0.1,0.3l-0.3,0.1l-0.3-0.1l-0.6-0.2l-0.3,0l-0.2-0.1l-0.6-0.2l-0.5-0.2
				l-0.3-0.1l-0.2-0.1l-0.3-0.1l-3.1-1.2l-0.3-0.1l-0.3-0.1l-0.3,0l-0.2-0.1l-1.3-0.4l-0.2-0.1l-0.3-0.1l-0.2-0.1l-0.3-0.2l-0.2-0.4
				l0.1-0.5l0.2-0.3l0.5-0.3l0.2-0.1l0.2-0.2l0.3-0.1l1.9-1.1l0.3-0.1l0.5-0.3l0.2-0.1l0.2-0.1l0.3-0.1l0.3-0.2L54,135l1.2-0.6
				l0.5-0.3l0.5-0.2l0.7-0.4l0.5-0.3l0.3-0.1l0.3,0l0.1,0.4l0.1,0.4l0,0.3l0.1,0.5L58.3,134.8z M55,137.5l-0.1-0.2l-0.3,0l-1.5,0.8
				l-0.1,0.2l0.1,0.1l1.6,0.5l0.3,0l0.1-0.2l-0.1-0.3l0-0.3L55,137.5z"/>
			<path d="M57.5,131l-3.1-0.2l-0.4,0l-2.7-0.2l-0.6,0l-0.8-0.1l-0.3,0l-0.3,0l-0.3,0l-0.3,0l-0.3-0.2l-0.1-0.3l0.1-1.7l0-0.3
				l0.1-0.5l0-0.3l0.1-1.4l0.2-0.5l0.1-0.2l0.1-0.3l0.2-0.2l0.2-0.2l0.2-0.2l0.2-0.2l0.7-0.4l0.3-0.1l0.5-0.1l0.4,0l0.5,0l0.5,0.2
				l0.5,0.3l0.3,0.1l0.3-0.1l0.2-0.2l0.2-0.2l0.6-0.2l0.5-0.1l1.1,0.1l0.3,0.1l0.3,0.1l0.3,0.2l0.5,0.4l0.4,0.6l0.1,0.3l0.2,0.8
				l0,0.3l0,1.4l-0.1,0.3l-0.1,2l-0.1,0.4l0,0.5l-0.2,0.3l-0.3,0.1L57.5,131z M52.4,126.7l-0.1-0.4l-0.2-0.2l-0.4-0.1l-0.4,0
				l-0.2,0.1l-0.1,0.2l-0.2,1.4l0.2,0.3l0.4,0.2l0.5,0l0.4-0.1l0.2-0.3L52.4,126.7z M56.2,126.9l0-0.8l-0.1-0.2l-0.2-0.2l-0.4-0.1
				l-0.4,0.1l-0.3,0.1l-0.1,0.2l-0.2,1.3l0,0.3l-0.1,0.3l0.2,0.2l0.2,0.1l0.8,0.1l0.3-0.2l0.1-0.2L56.2,126.9z"/>
			<path d="M59.8,117.5l-0.6,1.1l-0.2,0.2l-0.7,0.8l-0.2,0.1l-0.5,0.3l-1,0.5l-0.3,0.1l-0.3,0l-0.5,0.1l-0.9,0l-1.6-0.4l-0.6-0.2
				l-0.7-0.4l-0.2-0.2l-0.6-0.6l-0.3-0.5l-0.2-0.5l-0.1-0.2l-0.3-0.8l0-0.5l-0.1-0.3l0-0.3l0-0.3l0.1-1l0.1-0.6l0.9-1.7l0.6-0.6
				l0.7-0.5l0.3-0.1l0.2-0.1l0.3-0.1l0.3,0l0.5-0.2l0.3,0l0.3,0l0.5,0l1,0.1l0.9,0.3l0.3,0.1l0.2,0.1l0.3,0.1l0.2,0.2l0.8,0.7
				l0.2,0.2l0.7,1.2l0.3,1.3l0.1,0.6l-0.1,1.2L59.8,117.5z M57.6,115.8l0-0.3l0-0.3l-0.1-0.2l-0.1-0.3l-0.2-0.5L57,114l-0.2-0.2
				l-0.2-0.2l-0.5-0.2l-0.7-0.2l-0.6-0.1l-0.3,0l-0.3,0l-0.3,0.1l-0.5,0.2l-0.4,0.4l-0.5,0.7l-0.2,0.6l-0.1,0.6l0,0.3l0.1,0.3
				l0.2,0.5l0.1,0.2l0.2,0.2l0.2,0.2l0.2,0.2l0.2,0.1l0.5,0.2l0.4,0.1l0.7,0.1l0.8-0.1l0.2-0.1l0.2-0.1l0.5-0.3l0.3-0.4l0.1-0.2
				l0.2-0.3L57.6,115.8z"/>
			<path d="M62.9,106.5l-0.1,0.3l-0.3,0.5l-0.4,0.4l-0.2,0.2l-0.2,0.2l-0.4,0.3l-0.2,0.1l-0.2,0.1l-0.6,0.1l-0.5,0l-0.6-0.1
				l-1.1-0.3l-2.1-0.8l-0.3-0.1l-0.2-0.1l-1.8-0.7l-0.2-0.1l-0.3-0.1l-0.3-0.1l-0.2-0.3l0-0.3l0.1-0.3l0.3-0.5l0.1-0.3l0.1-0.2
				l0.2-0.2l0.3,0l0.4,0.1l0.4,0.2l0.2,0l4.2,1.6l0.8,0.2l0.3,0l0.3-0.1l0.2-0.1l0.2-0.2l0.2-0.3l0.3-0.8l0-0.5l-0.1-0.3l-0.2-0.2
				l-0.2-0.2l-0.8-0.4l-5.2-1.9l-0.2-0.3l0-0.3l0.2-0.5l0.3-0.8l0.2-0.3l0.3-0.1l0.2,0.1l1.1,0.4l0.2,0.1l0.3,0.1l0.3,0.1l3.5,1.3
				l0.6,0.3l0.5,0.3l0.2,0.2l0.2,0.2l0.3,0.5l0.2,0.5l0.1,0.5l0.1,0.6l-0.1,1.1l-0.1,0.2l-0.1,0.4L62.9,106.5z"/>
			<path d="M66.5,98.1l-0.3,0.3l-0.4,0l-0.2-0.2l-0.7-0.4l-0.3-0.1l-1-0.6l-0.2-0.2l-1.9-1l-0.3-0.2L61,95.8l-0.3-0.2l-0.4-0.2
				L60,95.2l-0.3,0l-0.2,0.2l-0.7,1.2l-0.1,0.3L58.4,97l-0.3,0l-0.4-0.2l-0.6-0.4l-0.3-0.1L56.6,96l0-0.3l0.5-0.8l0.2-0.4l0.4-0.7
				l0.1-0.2l0.2-0.3l0.1-0.3l0.1-0.2l0.2-0.2l0.5-1l0.2-0.2l0.1-0.3l0.2-0.2l0.4-0.8l0.3-0.1l0.3,0l1.2,0.6l0.2,0.3l0,0.3l-0.1,0.2
				l-0.1,0.3L61.2,92l-0.2,0.5l0,0.3l0.3,0.3l1.1,0.6l0.3,0.1l2,1.1l0.3,0.1l0.2,0.1l0.5,0.3l0.2,0.2l0.5,0.2l0.6,0.4l0.3,0.3
				l-0.1,0.4l-0.4,0.8L66.5,98.1z"/>
			<path d="M74.3,86.4l-0.2,0.2l-0.3,0.2l-0.2,0.2l-0.6,0.3l-0.6,0.3l-0.8,0.1l-0.8,0l-1.3-0.3L68.7,87l-0.8-0.6L67,85.5L66.7,85
				l-0.4-0.8l-0.1-0.5L66,83.2l0-0.8l0-0.5l0.3-1.1l0.7-1.2l0.6-0.7l0.2-0.2l0.2-0.2l1.2-0.7l1.1-0.3l0.6,0l0.3,0.1l0.3,0l0.3,0
				l0.3,0l0.3,0.1l0.3,0.1l0.3,0.1l0.2,0.3l-0.1,0.3l-0.2,0.3L72.3,79l-0.2,0.2l-0.2,0.2l-0.1,0.2l-0.3,0.1l-0.4,0l-0.3,0l-0.6,0.1
				L70,79.9L69.8,80l-0.4,0.3L69,80.7l-0.5,0.8L68.4,82l0,0.4l0.1,0.5l0.1,0.3l0.3,0.5l0.4,0.4l0.7,0.5l0.3,0.2l0.2,0.1l0.2,0.1
				l0.3,0.1l0.6,0.1l0.5-0.1l0.5-0.2l0.5-0.3l0.3-0.3l0.4-0.6l0.1-0.5l0.1-0.2l0-0.3l-0.1-0.5l-0.1-0.3l0-0.3l0.1-0.4l0.2-0.2
				l0.2-0.2l0.2-0.2l0.5-0.6l0.3-0.1l0.2,0.1l0.6,1l0.2,0.5l0.1,0.5l0.1,0.6l-0.1,0.8l-0.1,0.3L76,83.9L76,84.2l-0.4,0.7L75,85.7
				l-0.5,0.5L74.3,86.4z"/>
			<path d="M82,78.5l-0.2,0.2L81.3,79l-0.6,0.2l-0.2,0l-0.3,0.1l-0.5,0.1l-0.3,0l-0.3,0l-0.6-0.2L78.1,79l-0.5-0.3l-0.8-0.8
				l-1.5-1.7l-0.2-0.2L75,75.7l-1.3-1.4l-0.1-0.2l-0.2-0.3l-0.2-0.2l0-0.3l0.1-0.3l0.2-0.2l0.5-0.4l0.2-0.2l0.2-0.2l0.3-0.1l0.3,0.1
				l0.3,0.3l0.3,0.4l0.2,0.1l3,3.4l0.6,0.6l0.2,0.1l0.3,0.1l0.3,0l0.3-0.1l0.3-0.2l0.6-0.6l0.2-0.5l0.1-0.3l-0.1-0.3l-0.1-0.2
				l-0.5-0.7l-3.7-4.1l-0.1-0.3l0.1-0.3l0.5-0.4l0.6-0.6l0.3-0.1l0.3,0.1l0.2,0.2l0.8,0.9l0.2,0.1l0.2,0.2l0.2,0.2l2.5,2.8l0.4,0.5
				l0.3,0.5l0.1,0.3l0.1,0.3l0.1,0.6l0,0.6l-0.1,0.5l-0.2,0.5l-0.6,0.9l-0.2,0.2l-0.3,0.3L82,78.5z"/>
			<path d="M89.1,72.8l-0.6,0.1L88.2,73l-0.3,0L87.6,73l-0.6,0l-0.3-0.1l-0.3,0L86,72.6l-0.2-0.2l-0.2-0.2L85.4,72l-0.1-0.3l0.1-0.2
				l0.9-0.6l0.2-0.1l0.2-0.2l0.3-0.1l0.7,0.2l0.3,0l0.3,0l0.6-0.3l0.2-0.2l0.3-0.3l0.3-0.4l0-0.3l-0.1-0.4l-0.3-0.2l-0.2,0l-0.6,0.1
				l-2,1l-0.5,0.1l-1.1,0.1l-0.8-0.2l-0.5-0.3l-0.4-0.4l-0.3-0.4l-0.3-0.6l-0.2-0.8l0-0.8l0.3-0.8l0.2-0.5l0.3-0.4l0.2-0.2l0.2-0.2
				l0.2-0.2l0.9-0.6l0.5-0.2l0.8-0.2l1.1,0l0.5,0.2l0.7,0.4l0.2,0.2l0.2,0.2l0,0.3l-0.1,0.3l-0.2,0.1l-0.2,0.2l-0.3,0.2l-0.5,0.4
				l-0.4,0l-0.3-0.1l-0.3,0l-0.3,0l-0.2,0.1l-0.4,0.2l-0.4,0.3l-0.2,0.2l-0.1,0.2l-0.1,0.2l0,0.2l0.2,0.4l0.3,0.3l0.3,0l0.6-0.1
				l0.7-0.3l0.3-0.2l0.3-0.1l0.2-0.1l0.3-0.1l1.1-0.3l0.3,0l0.2,0l0.3,0l0.5,0.1l0.3,0.1l0.6,0.6l0.3,0.4l0.3,0.6l0.1,0.2l0.1,0.3
				l0,0.3l0,0.2l-0.1,0.6l-0.5,1l-0.2,0.3l-0.2,0.2l-0.2,0.2l-0.2,0.2l-0.2,0.2l-0.2,0.2l-0.9,0.6L89.1,72.8z"/>
			<path d="M97,68L96.6,68l-0.3-0.2l-0.1-0.3l-0.3-0.7l-0.2-0.3l-0.5-1l-0.1-0.3l-1-1.8L94,63.1l-0.1-0.2l-0.1-0.3l-0.2-0.3
				l-0.2-0.4l-0.3-0.2l-0.3,0l-1.2,0.6l-0.2,0.2l-0.3,0l-0.2-0.2l-0.2-0.4l-0.3-0.6l-0.1-0.2l0-0.4l0.2-0.2l0.9-0.4l0.4-0.2l0.8-0.3
				l0.2-0.2l0.3-0.1l0.2-0.2l0.2-0.1l0.3-0.1l1-0.6l0.2-0.1l0.2-0.2l0.3-0.1l0.8-0.4l0.3,0l0.3,0.2l0.6,1.2l0,0.4l-0.1,0.2l-0.2,0.1
				l-0.2,0.2l-0.5,0.2l-0.5,0.3l-0.2,0.3l0.1,0.4l0.5,1.1l0.2,0.2l1,2l0.2,0.3l0.1,0.2l0.3,0.5l0.1,0.3l0.3,0.5l0.3,0.7l0,0.4
				l-0.3,0.3l-0.8,0.4L97,68z"/>
			<path d="M105.9,64.3l-1.2,0l-0.3,0l-1.1-0.2L103,64l-0.5-0.2l-0.9-0.6l-0.2-0.2l-0.2-0.3l-0.4-0.4l-0.4-0.8L100,60l-0.1-0.6
				l0-0.8l0-0.3l0.2-0.8l0.2-0.5l0.3-0.4l0.1-0.2l0.5-0.7l0.5-0.3l0.2-0.2l0.2-0.2l0.2-0.1l0.9-0.4l0.6-0.2l1.9,0l0.8,0.2l0.7,0.3
				l0.3,0.2l0.2,0.1l0.2,0.2l0.2,0.2l0.4,0.4l0.2,0.3l0.2,0.2l0.3,0.5l0.4,0.9l0.2,1l0,0.3l0,0.2l0,0.3l0,0.3l-0.2,1.1l-0.1,0.3
				l-0.6,1.2l-1,0.9l-0.5,0.3l-1.1,0.5L105.9,64.3z M106.3,61.6l0.2-0.2l0.2-0.1l0.2-0.2l0.2-0.2l0.3-0.5l0.1-0.3l0.1-0.2l0.1-0.2
				l-0.1-0.6l-0.1-0.7l-0.2-0.6l-0.2-0.2l-0.2-0.2l-0.2-0.2l-0.5-0.3l-0.5-0.2l-0.8-0.1l-0.7,0.2l-0.6,0.3l-0.3,0.2l-0.2,0.2
				l-0.3,0.4l-0.1,0.2l-0.1,0.3l0,0.3l-0.1,0.2v0.3l0.1,0.5l0.1,0.4l0.3,0.6l0.5,0.7l0.2,0.1l0.2,0.1l0.5,0.2l0.5,0.1l0.2-0.1l0.3,0
				L106.3,61.6z"/>
			<path d="M113.6,61.6l-0.2-0.3l-0.5-3.1l-0.1-0.3l-0.2-1.4l-0.1-0.3l-0.3-2.2l-0.1-0.2l0-0.5l-0.2-0.8l0.1-0.3l0.3-0.2l0.4,0
				l0.4,0.2l0.4,0.3l0.3,0.2l0.4,0.4l0.2,0.1l1.5,1.2l0.3,0.2l0.3,0.3l0.2,0.2l0.2,0.2l0.3,0.1l0.2-0.2l0.7-1l0.1-0.3l1-1.4l0.2-0.3
				l0.1-0.2l0.1-0.2l0.5-0.7l0.3-0.2l0.4-0.2l0.3,0.1l0.2,0.3l0,0.3l0.1,0.6l0,0.2l0.1,0.6l0,0.3l0.2,1.4l0,0.3l0.7,4.1l0,0.3
				l0.2,0.7l-0.1,0.4l-0.3,0.2l-1.7,0.2l-0.3,0l-0.2-0.3l0-0.2l-0.1-0.6l0-0.3l-0.1-0.5l-0.1-0.5l-0.1-0.5l-0.1-0.8l-0.1-0.2
				l-0.2,0.1l-0.5,0.7l-0.2,0.2l-0.3,0.5l-0.1,0.2l-0.2,0.2l-0.2,0.3l-0.3,0l-0.3-0.2l-0.4-0.3l-0.2-0.2l-0.7-0.5l-0.2-0.2l-0.2-0.1
				l-0.1,0l-0.1,0.1l0.1,0.5l0.1,0.3l0.1,0.5l0.1,0.3l0,0.4L116,61l-0.1,0.3l-0.4,0.2l-0.4,0l-0.3,0.1l-0.5,0.1l-0.3,0.1L113.6,61.6
				z"/>
			<path d="M134.1,60.5l-1.2-0.4l-0.3-0.1l-0.9-0.6l-0.2-0.2l-0.4-0.4l-0.6-0.9l-0.1-0.3l-0.1-0.3l-0.2-0.5l-0.1-0.9l0.2-1.6
				l0.2-0.6l0.3-0.7l0.1-0.2l0.5-0.7l0.4-0.4l0.5-0.3l0.2-0.2l0.7-0.4l0.5-0.1l0.3-0.1l0.3-0.1l0.3,0l1,0l0.7,0.1l1.8,0.7l0.7,0.5
				l0.6,0.6l0.2,0.3l0.2,0.2l0.2,0.3l0.1,0.3l0.2,0.5l0,0.3l0.1,0.3l0.1,0.5l0,1l-0.1,1l-0.1,0.3l-0.1,0.2l-0.1,0.3l-0.1,0.3
				l-0.6,0.9l-0.2,0.2l-1,0.9l-1.3,0.5l-0.5,0.1l-1.3,0L134.1,60.5z M135.5,58.1l0.3,0l0.3,0l0.2-0.1l0.3-0.1l0.5-0.3l0.2-0.2
				l0.1-0.2l0.2-0.2l0.2-0.6l0.1-0.7l0-0.6l-0.1-0.3l-0.1-0.3l-0.1-0.3l-0.3-0.5l-0.4-0.4l-0.7-0.4l-0.7-0.1l-0.6,0l-0.3,0l-0.3,0.1
				l-0.4,0.2l-0.2,0.2l-0.2,0.2l-0.1,0.2l-0.2,0.2l-0.1,0.2l-0.1,0.5l0,0.4l0,0.7l0.2,0.8l0.2,0.2l0.1,0.2l0.4,0.4l0.5,0.3l0.2,0
				l0.3,0.1L135.5,58.1z"/>
			<path d="M142.8,58.6l0-0.3l0.3-1.1l0.1-0.3l0-0.3l0.1-0.3l0.1-0.3l0.2-0.5l0-0.3l0.7-3.1l0.3-0.3l0.3-0.1l0.8,0.1l0.3,0.1
				l0.3,0.1l0.3,0.1l0.3,0l0.3,0.1l0.3,0.1l0.8,0.2l0.4,0.1l0.4,0.1l0.7,0.4l0.5,0.3l0.4,0.4l0.6,1l0.1,0.3l0.1,0.3l0.1,0.8l0,0.3
				l-0.2,0.9l-0.4,0.7l-0.8,0.8l-0.2,0.1l-0.2,0.2l-0.2,0.3l-0.1,0.3l0.1,0.2l0.3,0.8l0.1,0.3l0.3,0.8l0,0.3l0.1,0.2l0.1,0.3
				l-0.2,0.3l-0.3,0.1l-0.5-0.1l-0.3-0.1l-1.1-0.2l-0.4-0.2l-0.2-0.3l-0.1-0.3l0-0.3l-0.1-0.2l-0.1-0.6l-0.2-0.5l-0.1-0.3l-0.1-0.3
				l-0.2-0.3l-0.8-0.3l-0.3,0.1l-0.2,0.2l-0.2,0.9l0,0.3l-0.1,0.2l-0.1,0.5l-0.2,0.4l-0.5,0l-0.4-0.1l-0.2,0l-0.4-0.1l-0.3,0
				l-0.4-0.3l0-0.5L142.8,58.6z M146.4,56.9l0.6,0.2l0.3,0l0.4,0l0.3-0.1l0.2-0.1l0.2-0.2l0.2-0.2l0.1-0.4l0-0.4l0-0.2l-0.2-0.5
				l-0.2-0.1l-0.3-0.1l-0.4-0.2l-0.6-0.1l-0.3-0.1l-0.3,0l-0.2,0.2l-0.2,0.6l0,0.2l-0.2,0.8l0.1,0.2l0.2,0.2L146.4,56.9z"/>
			<path d="M154.7,64.8l-0.3-0.1l-1.6-0.7l-0.3-0.1l-0.2-0.2l0-0.5l0.3-0.7l0.1-0.3l2.9-7.3l0.2-0.2l0.3,0l0.3,0.1l0.2,0.1l3,1.2
				l0.7,0.4l0.2,0.2l0.2,0.2l0.2,0.2l0.2,0.2l0.5,0.7l0.4,1l0.2,0.9l0,0.3l0,0.6L162,62l-0.1,0.4l-0.2,0.4l-0.1,0.3l-0.1,0.2
				l-0.2,0.2l-0.2,0.3l-0.2,0.2l-0.4,0.4l-0.2,0.1l-0.2,0.2l-1,0.6l-1.1,0.2l-0.7,0l-0.6-0.1l-0.4,0l-0.3-0.1l-0.4-0.1l-0.4-0.2
				L154.7,64.8z M156.4,63l0.6,0.2l0.4,0l0.6-0.1l0.7-0.4l0.4-0.4l0.5-0.9l0.2-1.2l0-0.3l0-0.3l-0.1-0.3l-0.1-0.3l-0.1-0.2l-0.2-0.2
				l-0.4-0.3l-0.4-0.2l-0.6-0.2l-0.5-0.1l-0.2,0.2l-0.1,0.2l-0.7,1.8l-0.3,0.6l-0.2,0.7l-0.2,0.5l-0.1,0.2l0,0.3l0.2,0.3l0.2,0.1
				L156.4,63z"/>
			<path d="M165.2,69.8l-0.3-0.1l-0.3-0.2l-0.2-0.2l-0.5-0.2l-0.2-0.1l-0.3-0.1l-0.9-0.5l-0.3-0.4l0.1-0.4l0.1-0.3l0.5-0.8l0.1-0.3
				l0.2-0.2l1.1-2l0.1-0.2l0.6-1l0.2-0.2l0.1-0.3l0.7-1.2l0.1-0.3l0.3-0.5l0.2-0.5l0.3-0.2l0.3,0l0.2,0.2l0.3,0.1l0.2,0.1l0.3,0.1
				l0.2,0.2l1,0.5l0.2,0.2l0.2,0.1l0.2,0.2l0.3,0.1l1,0.6l0.2,0.2l0.3,0.1l0.2,0.2l0,0.3l-0.4,0.7l-0.2,0.2l-0.1,0.3l-0.2,0.1
				l-0.3,0l-0.2-0.1l-1.7-1l-0.3-0.1l-0.2-0.1l-0.3-0.1l-0.2,0.2l-0.2,0.4l-0.1,0.4l0.2,0.3l0.7,0.4l0.5,0.3l0.3,0.1l0.7,0.4
				l0.2,0.3l-0.1,0.4l-0.7,1.1l-0.2,0.2l-0.3,0l-0.3-0.2l-0.3-0.1l-0.5-0.3l-0.5-0.2l-0.4-0.3l-0.4-0.2l-0.3,0l-0.3,0.2l-0.4,0.8
				l0,0.3l0.2,0.3l0.3,0.1l0.2,0.2l0.3,0.1l0.2,0.2l0.4,0.2l0.6,0.4l0.2,0.2l0.3,0.1l0.2,0.3l0,0.3l-0.7,1.2l-0.3,0.2l-0.3,0l-1.8-1
				L165.2,69.8z"/>
			<path d="M171.2,70.4l0.1-0.2l0.7-0.9l0.2-0.2l0.1-0.2l0.2-0.2l0.2-0.3l0.4-0.4l0.1-0.2l1.9-2.6l0.4-0.2l0.3,0l0.7,0.4l0.2,0.2
				l0.2,0.2l0.2,0.2l0.2,0.1l0.2,0.2l0.2,0.2l0.7,0.5l0.3,0.2l0.3,0.3l0.5,0.6l0.3,0.5l0.2,0.5l0.1,1.2l0,0.3l-0.1,0.3l-0.3,0.8
				l-0.1,0.2l-0.5,0.7l-0.6,0.5l-1,0.4l-0.3,0l-0.3,0l-0.3,0.2l-0.2,0.3l0,0.3l-0.1,0.9l-0.1,0.3l-0.1,0.9l-0.1,0.3l0,0.3l-0.1,0.3
				l-0.3,0.2l-0.3-0.1l-0.4-0.3l-0.2-0.2l-0.9-0.7l-0.3-0.4l-0.1-0.4l0-0.3l0.1-0.3l0-0.3l0.1-0.6l0-0.5l0.1-0.3l0-0.3l-0.1-0.4
				l-0.6-0.6l-0.3,0l-0.3,0.1l-0.6,0.7l-0.1,0.3l-0.2,0.2l-0.3,0.4l-0.3,0.2l-0.4-0.2l-0.3-0.3l-0.2-0.1l-0.3-0.3l-0.2-0.1l-0.2-0.4
				l0.2-0.4L171.2,70.4z M175.3,70.3l0.5,0.4l0.2,0.2l0.4,0.2l0.3,0.1l0.2,0l0.2-0.1l0.3-0.1l0.3-0.3l0.2-0.3l0.1-0.2l0-0.6
				l-0.2-0.2l-0.3-0.2l-0.3-0.3l-0.5-0.3l-0.2-0.2l-0.3-0.1l-0.3,0.1l-0.4,0.5l-0.1,0.2l-0.5,0.7l0,0.2l0.1,0.3L175.3,70.3z"/>
			<path d="M179.1,80.4l-0.2-0.5l-0.1-0.3l-0.1-0.3l0-0.3l-0.1-0.6l0-0.3l0-0.3l0.2-0.6l0.1-0.2l0.2-0.2l0.2-0.2l0.3-0.1l0.3,0.1
				l0.8,0.7l0.2,0.2l0.2,0.2l0.1,0.3l0,0.7L181,79l0.1,0.3l0.5,0.6l0.2,0.1l0.3,0.3l0.5,0.2l0.3,0l0.3-0.2l0.2-0.3l0-0.2l-0.2-0.5
				l-1.4-1.7l-0.2-0.5l-0.3-1l0.1-0.8l0.2-0.5l0.3-0.5l0.3-0.3l0.5-0.5l0.7-0.4l0.8-0.1L185,73l0.5,0.1l0.5,0.3l0.2,0.1l0.2,0.2
				l0.3,0.2l0.7,0.8l0.3,0.5l0.4,0.7l0.2,1.1l-0.1,0.5l-0.2,0.8l-0.2,0.2l-0.2,0.2l-0.2,0.1l-0.3-0.1l-0.2-0.2l-0.2-0.2l-0.2-0.3
				l-0.5-0.4l-0.1-0.3l0.1-0.3l0-0.3l-0.1-0.3l-0.1-0.2l-0.3-0.4l-0.3-0.3l-0.2-0.1l-0.2-0.1l-0.3,0l-0.2,0l-0.3,0.2l-0.3,0.3l0,0.3
				l0.2,0.5l0.4,0.6l0.3,0.3l0.2,0.2l0.2,0.2l0.2,0.2l0.5,1l0.1,0.3l0.1,0.2l0,0.3l0,0.6l-0.1,0.3l-0.4,0.7l-0.3,0.3l-0.6,0.4
				l-0.2,0.1l-0.2,0.1l-0.3,0.1l-0.2,0l-0.6,0l-1.1-0.3l-0.3-0.1l-0.2-0.2l-0.3-0.1l-0.2-0.2l-0.2-0.1l-0.2-0.2l-0.8-0.8L179.1,80.4
				z"/>
			<path d="M188.3,91.5l-0.2-0.6l-0.1-0.3l-0.1-0.3l0-0.5l0-0.3l0.1-0.5l0.2-0.5l0.2-0.3l0.3-0.4l0.5-0.4l0.6-0.4l0.5-0.2l0.8,0
				l0.3,0.1l0.3,0l0.3-0.1l0.2-0.2l0.3-0.5l0.3-0.4l0.7-0.5l0.2-0.1l0.3-0.1l0.2,0l0.3,0l0.2,0l0.3,0l0.6,0.2l0.2,0.1l0.5,0.3
				l0.4,0.4l0.4,0.6l0.4,0.8l0.2,0.7l0,0.3l0,0.6l-0.1,0.5l-0.1,0.3l-0.2,0.3l-0.4,0.4l-0.3,0.1l-0.3-0.3l-0.7-1.1l-0.1-0.3l0-0.3
				l0-0.3l-0.1-0.4l-0.3-0.3l-0.2-0.1l-0.3,0l-0.3,0.2l-0.3,0.3l0,0.3l0.1,0.4l0,0.4l-0.2,0.2l-1,0.7l-0.3,0.1l-0.3-0.2l-0.3-0.3
				l-0.3-0.2l-0.3-0.1l-0.2,0l-0.3,0.1l-0.3,0.2l-0.4,0.3l-0.1,0.2l-0.1,0.3l0,0.3l0.1,0.3l0.2,0.4l0.3,0.3l0.2,0.1l0.3,0.1l0.5,0
				l2.9-1.8l0.3,0l0.3,0.1l0.2,0.2l0.1,0.3l0.2,0.3l0.4,0.6l0.2,0.2l0.1,0.3l0,0.3l-0.3,0.3l-0.4,0.2l-0.2,0.2l-0.4,0.3l-0.3,0
				l-0.3-0.2l-0.3-0.2l-0.4,0.1l-0.8,0.5l-0.5,0.3l-0.5,0.2l-0.6,0.1L191,94l-0.5-0.1l-0.5-0.2l-0.4-0.4l-0.4-0.5l-0.7-1.1
				L188.3,91.5z"/>
			<path d="M195.6,105.3l0-0.3l0-0.3l0-0.3l0-0.7l0.1-0.7l0.3-0.8l0.4-0.8l0.9-1l0.7-0.5l0.9-0.4l1.2-0.3l0.6-0.1l0.9,0l0.5,0.1
				l0.6,0.2l0.7,0.4l0.4,0.3l0.8,0.8l0.7,1.2l0.3,0.8l0.1,0.3l0.1,0.3l0.1,1.4l-0.2,1.1l-0.2,0.5l-0.2,0.2l-0.2,0.3l-0.2,0.2
				l-0.2,0.2l-0.2,0.2l-0.2,0.2l-0.3,0.2l-0.3,0l-0.2-0.2l-0.2-0.4l-0.1-0.4l-0.1-0.3l-0.1-0.3l-0.1-0.2l0-0.4l0.2-0.3l0.1-0.2
				l0.2-0.5l0.1-0.2l0-0.3l0-0.5l-0.2-0.6l-0.5-0.8l-0.3-0.3l-0.4-0.2l-0.5-0.2l-0.3,0l-0.5,0l-0.6,0.1l-0.8,0.3l-0.3,0.1l-0.2,0.2
				l-0.1,0.2l-0.2,0.2l-0.3,0.5l-0.2,0.5l-0.1,0.5l0,0.5l0.1,0.4l0.3,0.7l0.4,0.4l0.2,0.2l0.3,0.1l0.5,0.2l0.3,0l0.3,0.1l0.3,0.2
				l0.1,0.3l0.1,0.3l0.1,0.3l0.3,0.7l-0.1,0.3l-0.2,0.2l-1.1,0l-0.6-0.1l-0.5-0.2l-0.5-0.2l-0.7-0.5l-0.2-0.2l-0.2-0.2l-0.2-0.2
				l-0.5-0.7l-0.4-0.9l-0.2-0.7L195.6,105.3z"/>
			<path d="M199.6,119.2l0.1-0.3l0.1-0.3l0.2-0.1l0.2-0.2l0.2-0.3l0.1-0.3l-0.1-0.3l0-0.3l-0.3-1.3l0-0.3l-0.2-0.6l0-0.3l-0.2-0.3
				l-0.3-0.2l-0.5-0.1l-0.3-0.2l-0.2-0.3l-0.2-0.8l0-0.3l-0.1-0.5l0-0.3l0.3-0.1l0.3,0l0.6,0.2l0.3,0l0.2,0.1l0.6,0.1l0.5,0.2l0.3,0
				l0.2,0.1l0.3,0l3.2,0.8l0.3,0l0.3,0.1l0.3,0l0.2,0.1l1.4,0.3l0.2,0.1l0.3,0l0.3,0.1l0.3,0.2l0.2,0.4l0,0.5l-0.2,0.3l-0.4,0.4
				l-0.2,0.1l-0.2,0.2l-0.3,0.1l-1.7,1.3l-0.3,0.2l-0.4,0.4l-0.2,0.1l-0.2,0.2l-0.3,0.1l-0.2,0.2l-0.2,0.2l-1.1,0.8l-0.4,0.4
				l-0.5,0.3l-0.6,0.5l-0.5,0.3l-0.3,0.2l-0.3,0l-0.2-0.4l-0.1-0.4l0-0.3l-0.2-0.5L199.6,119.2z M202.5,116.2l0.2,0.2l0.3,0l1.4-1
				l0.1-0.2l-0.2-0.1l-1.6-0.3l-0.3,0.1l0,0.2l0.1,0.3l0,0.3L202.5,116.2z"/>
			<path d="M200.2,124.4l0.1-0.4l0.3-0.2l0.3,0l0.8-0.1l0.3-0.1l1.1-0.1l0.3,0l2.1-0.2l0.4,0l0.3,0l0.3,0l0.4-0.1l0.4,0l0.3-0.2
				l0.1-0.3l-0.1-1.3l-0.1-0.3l0.1-0.3l0.2-0.1l0.4-0.1l0.7,0l0.3,0l0.3,0.1l0.2,0.3l0,1l0.1,0.4l0,0.8l0.1,0.2l0,0.3l0.1,0.3l0,0.3
				l0,0.3l0.2,1.1l0,0.3l0.1,0.3l0,0.3l0.1,0.9l-0.2,0.3l-0.3,0.2l-1.3,0.1l-0.3-0.1l-0.2-0.2l0-0.3l-0.1-0.3l0-0.5l-0.1-0.5
				l-0.2-0.3l-0.4-0.1l-1.2,0.1l-0.3,0.1l-2.2,0.2l-0.3,0.1l-0.3,0l-0.6,0.1l-0.3,0l-0.5,0.1l-0.7,0l-0.4-0.1l-0.2-0.4l-0.1-0.9
				L200.2,124.4z"/>
			<path d="M200.5,134.2l0-0.3l0-0.3l0.1-0.3l0-0.6l0-0.3l0-0.3l0-1l0.2-0.4l0.4-0.1l0.3,0l1,0.1l0.3,0l0.3,0l2.3,0.1l0.3,0l1.1,0.1
				l0.3,0l0.3,0l1.4,0.1l0.3,0l0.6,0.1l0.5,0l0.3,0.2l0.1,0.3l0,0.3l0,0.3l0,0.3l0,0.3l-0.1,0.3l0,1.1l0,0.3l0,0.2l0,0.3l0,0.3
				l0,1.1l-0.1,0.3l0,0.3l-0.1,0.3l-0.3,0.1l-0.8,0l-0.3,0l-0.3,0l-0.2-0.1l-0.2-0.3l0-0.3l0.1-2l0-0.3l0-0.3l-0.1-0.3l-0.3-0.1
				l-0.4,0l-0.4,0.1l-0.1,0.3l0,0.8l-0.1,0.6l0,0.3l0,0.8l-0.2,0.3l-0.4,0.1l-1.3-0.1l-0.3-0.1l-0.1-0.3l0-0.3l0-0.3l0-0.6l0-0.5
				l0.1-0.4l0-0.4l-0.1-0.3l-0.3-0.1l-0.9,0l-0.3,0.1l-0.1,0.3l0,0.3l-0.1,0.3l0,0.3l0,0.3l0,0.5l0,0.7l-0.1,0.3l0,0.3l-0.1,0.3
				l-0.3,0.1l-1.4,0l-0.3-0.2l-0.1-0.3l0-2L200.5,134.2z"/>
			<path d="M202.9,139.8l0.3,0l1.1,0.2l0.3,0.1l0.3,0l0.3,0l0.3,0l0.5,0.1l0.3,0l3.2,0.5l0.4,0.2l0.1,0.3l-0.1,0.8l-0.1,0.3
				l-0.1,0.3l0,0.3l0,0.3l0,0.3l-0.1,0.3l-0.1,0.8l0,0.4l-0.1,0.4l-0.3,0.8l-0.3,0.5l-0.3,0.4l-1,0.6l-0.2,0.1l-0.3,0.1l-0.8,0.1
				l-0.3,0l-0.9-0.1l-0.8-0.3l-0.9-0.7l-0.1-0.2l-0.2-0.2l-0.3-0.2l-0.3,0l-0.2,0.1l-0.8,0.3l-0.3,0.1l-0.8,0.4l-0.3,0.1l-0.2,0.1
				l-0.3,0.1l-0.3-0.1l-0.1-0.3l0.1-0.5l0.1-0.3l0.2-1.1l0.2-0.4l0.3-0.3l0.3-0.1l0.3-0.1l0.2-0.1l0.5-0.2l0.5-0.2l0.3-0.1l0.3-0.1
				l0.3-0.2l0.2-0.8l-0.1-0.3l-0.3-0.2l-0.9-0.2l-0.3,0l-0.2-0.1l-0.5-0.1l-0.4-0.2l-0.1-0.5l0.1-0.4l0-0.2l0.1-0.4l0-0.3l0.2-0.4
				l0.5-0.1L202.9,139.8z M204.8,143.3l-0.1,0.7l0,0.3l0,0.4l0.1,0.3l0.1,0.2l0.2,0.2l0.3,0.2l0.4,0.1l0.4,0l0.2,0l0.5-0.3l0.1-0.3
				l0.1-0.4l0.1-0.4l0-0.6l0.1-0.3l-0.1-0.3l-0.2-0.2l-0.6-0.1l-0.2,0l-0.8-0.1l-0.2,0.1l-0.2,0.3L204.8,143.3z"/>
			<path d="M197.3,152.8l0.2-0.7l0.1-0.4l0.2-0.5l0.1-0.3l0.1-0.4l0.2-0.4l0-0.3l0.1-0.3l0.2-0.2l0.4,0l1.2,0.4l0.2,0.2l0,1l0.4,0.3
				l4.1,1.2l0.4,0l0.2-0.2l0.1-0.3l0.2-0.3l0.3-0.1l0.2,0.1l1,0.3l0.3,0.2l0.1,0.3l-0.1,0.3l-0.1,0.2l-0.3,1.1l0,0.3l-0.1,0.2
				l-0.5,1.6l-0.2,0.2l-0.3,0.1l-1.3-0.4l-0.2-0.2l0-0.3l0-0.3l0-0.3l-0.3-0.2l-1.3-0.5l-1-0.2l-0.3-0.1l-1.5-0.4l-0.2-0.1l-0.4,0.1
				l-0.2,0.3l-0.1,0.3l-0.2,0.3l-0.3,0.1l-1.3-0.4l-0.2-0.2l-0.1-0.3l0.1-0.5L197.3,152.8z"/>
			<path d="M193.8,162.9l0.5-0.2l2.9-1.1l0.2-0.2l0.3-0.1l1.3-0.5l0.3-0.1l0.1-0.1l-0.2-0.2l-0.2-0.1l-3.2-1.4l-0.3-0.3l0-0.3
				l0.1-0.3l0.3-0.5l0.1-0.3l0.3-0.5l0.2-0.2l0.3,0l1.1,0.5l0.2,0.1l2.1,0.9l0.2,0.1l0.5,0.2l0.2,0.1l3.9,1.7l0.2,0.2l0,0.4
				l-0.3,0.3l-0.3,0.2l-0.2,0.1l-3.7,1.4l-0.4,0.2l-1.3,0.5l-0.2,0.2l0.2,0.2l2.3,1l0.3,0.1l0.5,0.3l0.2,0.1l0.3,0.1l0.2,0.3l0,0.3
				l-0.7,1.6l-0.3,0.2l-0.3,0l-1.8-0.8l-0.3-0.2l-1.3-0.6l-0.2-0.1l-4.7-2.1l-0.2-0.2l0-0.3l0.2-0.3l0.4-0.3L193.8,162.9z"/>
			<path d="M189.6,169.3l0.6-0.6l0.2-0.2l1-0.5l0.5-0.2l0.8-0.2l0.6,0l0.5,0l1.3,0.4l0.9,0.5l0.4,0.3l1,1l0.6,1l0.1,0.2l0.1,0.3
				l0.1,0.3l0.1,0.8l0,0.9l-0.3,1.1l-0.1,0.2l-0.1,0.2l-0.1,0.2l-0.8,1.1l-0.5,0.5l-0.2,0.2l-1,0.5l-0.3,0.1l-0.3,0.1l-0.4,0.1l-1,0
				l-0.3,0l-0.6-0.1l-0.2-0.2l0.1-0.4l0.4-0.5l0.2-0.4l0.2-0.4l0.3-0.2l0.4-0.1l0.3,0l0.2,0l0.3-0.1l0.2-0.2l0.4-0.4l0.4-0.7l0-0.3
				l0.1-0.2l0-0.3l0-0.6l-0.3-0.7l-0.3-0.5l-0.4-0.4l-0.7-0.4l-0.4-0.2l-0.4-0.1l-0.6-0.1l-0.2,0l-0.6,0.1l-0.7,0.5l-0.5,0.6
				l-0.2,0.3l-0.2,0.5l-0.1,0.5l0,0.2l0.1,0.3l0.1,0.2l0.2,0.1l0.2-0.1l0.2-0.2l0.3-0.6l0.2-0.3l0.3-0.1l0.3,0l1.1,0.7l0.2,0.3
				l0,0.3l-0.3,0.5l-0.5,0.7l-1,1.6l-0.2,0.2l-0.2,0.2l-0.3,0.1l-0.3,0l-0.5-0.3l-0.2-0.2l-0.2-0.2l-0.2-0.2l-0.2-0.1l-0.4-0.4
				l-0.5-0.7l-0.1-0.2l-0.1-0.2l-0.1-0.2l-0.1-0.2l0-0.3l-0.1-0.3l0-0.5l0.1-1.1l0.4-1l0.8-1.2L189.6,169.3z"/>
		</g>
		<path d="M181.2,186.3c-13.5,12.7-31.7,20.5-51.7,20.5
			c-20.2,0-38.5-7.9-52-20.8" stroke-miterlimit="10" stroke-width="2" stroke="#000000" fill="none" id="bottom-half-circle"/>
		<path d="M103,170.9c1.2,0.9,2.8,0.9,3.7-0.3l0.8-1.2
			l25.4-35.6c1.3-1.7,3.7-2,5.6-1l0,0c1.8,1.1,4.3,0.7,5.6-1.1l16.4-20.8c0,0,0,0,0-0.1l2.8-3.5c0.7-0.9,0.5-2.3-0.4-3
			c-0.9-0.7-2.3-0.6-3,0.3l-1,1.3l0,0l-11.9,15.1c-0.7,0.9-1.9,1.2-2.9,0.5c-0.9-0.7-1.2-2.2-0.5-3.2l10.7-13.9l2.1-2.6
			c0.7-0.9,1-1.9,0.1-2.7l-0.8-0.6c-0.9-0.7-1.8-0.2-2.6,0.7l-2.1,2.6l-11,13.6c-0.7,0.9-2.2,1-3.2,0.3c-0.9-0.7-0.9-2-0.2-2.9
			l11.9-15.1l0,0l1-1.3c0.7-0.9,0.5-2.3-0.4-3c-0.9-0.7-2.3-0.6-3,0.3l-2.8,3.5c0,0,0,0,0,0.1L127,118.2c-1.4,1.7-1.3,4.2,0.3,5.7
			l0,0c1.5,1.6,1.6,4,0.3,5.7l-28.7,32.9l-0.9,1c-0.9,1.2-0.6,2.8,0.6,3.7" stroke-miterlimit="10" stroke-width="2" stroke="#000000" fill="none" id="fork"/>
	</g>
	<g id="catering-lines">
		<g>
			
				<line y2="132.3" x2="5.6" y1="132.3" x1="27.5" stroke-miterlimit="10" stroke-linecap="round" stroke-width="2" stroke="#000000" fill="none"/>
			
				<line y2="155.1" x2="8.1" y1="151.6" x1="29.8" stroke-miterlimit="10" stroke-linecap="round" stroke-width="2" stroke="#000000" fill="none"/>
			
				<line y2="109.5" x2="7.2" y1="112.9" x1="28.8" stroke-miterlimit="10" stroke-linecap="round" stroke-width="2" stroke="#000000" fill="none"/>
		</g>
		<g>
			
				<line y2="132.3" x2="250.8" y1="132.3" x1="228.9" stroke-miterlimit="10" stroke-linecap="round" stroke-width="2" stroke="#000000" fill="none"/>
			
				<line y2="155.1" x2="248.3" y1="151.6" x1="226.6" stroke-miterlimit="10" stroke-linecap="round" stroke-width="2" stroke="#000000" fill="none"/>
			
				<line y2="109.5" x2="249.2" y1="112.9" x1="227.6" stroke-miterlimit="10" stroke-linecap="round" stroke-width="2" stroke="#000000" fill="none"/>
		</g>
	</g>
</g>
<g display="none" id="Template_Files">
	<g display="inline" id="Baseline">
	</g>
	<g display="inline" id="_x31_6_Columns">
	</g>
	<g id="_x33__Columns">
	</g>
	<g display="inline" id="Guides">
	</g>
</g>
<g id="Presentation">
</g>
<g display="none" id="Documentation">
</g>
<g id="Isolation_Mode">
</g>
</svg>