<svg xml:space="preserve" enable-background="new 0 0 1095.2 12.3" viewBox="0 0 1095.2 12.3" y="0px" x="0px" xmlns:xlink="http://www.w3.org/1999/xlink" xmlns="http://www.w3.org/2000/svg" version="1.1">
<g id="Wires">
	<g>
		<g>
			<path d="M19.5,2c0,4.8-3.9,8.7-8.7,8.7S2.2,6.8,2.2,2" stroke-miterlimit="10" stroke-width="2" stroke="#FFFFFF" fill="none"/>
			<path d="M36.9,2c0,4.8-3.9,8.7-8.7,8.7S19.5,6.8,19.5,2" stroke-miterlimit="10" stroke-width="2" stroke="#FFFFFF" fill="none"/>
			<path d="M54.2,2c0,4.8-3.9,8.7-8.7,8.7S36.9,6.8,36.9,2" stroke-miterlimit="10" stroke-width="2" stroke="#FFFFFF" fill="none"/>
			<path d="M71.5,2c0,4.8-3.9,8.7-8.7,8.7S54.2,6.8,54.2,2" stroke-miterlimit="10" stroke-width="2" stroke="#FFFFFF" fill="none"/>
			<path d="M88.9,2c0,4.8-3.9,8.7-8.7,8.7S71.5,6.8,71.5,2" stroke-miterlimit="10" stroke-width="2" stroke="#FFFFFF" fill="none"/>
			<path d="M106.2,2c0,4.8-3.9,8.7-8.7,8.7S88.9,6.8,88.9,2" stroke-miterlimit="10" stroke-width="2" stroke="#FFFFFF" fill="none"/>
			<path d="M123.5,2c0,4.8-3.9,8.7-8.7,8.7s-8.7-3.9-8.7-8.7
				" stroke-miterlimit="10" stroke-width="2" stroke="#FFFFFF" fill="none"/>
			<path d="M140.9,2c0,4.8-3.9,8.7-8.7,8.7
				c-4.8,0-8.7-3.9-8.7-8.7" stroke-miterlimit="10" stroke-width="2" stroke="#FFFFFF" fill="none"/>
			<path d="M158.2,2c0,4.8-3.9,8.7-8.7,8.7s-8.7-3.9-8.7-8.7
				" stroke-miterlimit="10" stroke-width="2" stroke="#FFFFFF" fill="none"/>
			<path d="M175.5,2c0,4.8-3.9,8.7-8.7,8.7s-8.7-3.9-8.7-8.7
				" stroke-miterlimit="10" stroke-width="2" stroke="#FFFFFF" fill="none"/>
			<path d="M192.9,2c0,4.8-3.9,8.7-8.7,8.7s-8.7-3.9-8.7-8.7
				" stroke-miterlimit="10" stroke-width="2" stroke="#FFFFFF" fill="none"/>
			<path d="M210.2,2c0,4.8-3.9,8.7-8.7,8.7s-8.7-3.9-8.7-8.7
				" stroke-miterlimit="10" stroke-width="2" stroke="#FFFFFF" fill="none"/>
			<path d="M227.5,2c0,4.8-3.9,8.7-8.7,8.7s-8.7-3.9-8.7-8.7
				" stroke-miterlimit="10" stroke-width="2" stroke="#FFFFFF" fill="none"/>
			<path d="M244.9,2c0,4.8-3.9,8.7-8.7,8.7
				c-4.8,0-8.7-3.9-8.7-8.7" stroke-miterlimit="10" stroke-width="2" stroke="#FFFFFF" fill="none"/>
			<path d="M262.2,2c0,4.8-3.9,8.7-8.7,8.7
				c-4.8,0-8.7-3.9-8.7-8.7" stroke-miterlimit="10" stroke-width="2" stroke="#FFFFFF" fill="none"/>
			<path d="M279.5,2c0,4.8-3.9,8.7-8.7,8.7s-8.7-3.9-8.7-8.7
				" stroke-miterlimit="10" stroke-width="2" stroke="#FFFFFF" fill="none"/>
			<path d="M296.9,2c0,4.8-3.9,8.7-8.7,8.7s-8.7-3.9-8.7-8.7
				" stroke-miterlimit="10" stroke-width="2" stroke="#FFFFFF" fill="none"/>
			<path d="M314.2,2c0,4.8-3.9,8.7-8.7,8.7
				c-4.8,0-8.7-3.9-8.7-8.7" stroke-miterlimit="10" stroke-width="2" stroke="#FFFFFF" fill="none"/>
			<path d="M331.5,2c0,4.8-3.9,8.7-8.7,8.7s-8.7-3.9-8.7-8.7
				" stroke-miterlimit="10" stroke-width="2" stroke="#FFFFFF" fill="none"/>
			<path d="M348.9,2c0,4.8-3.9,8.7-8.7,8.7s-8.7-3.9-8.7-8.7
				" stroke-miterlimit="10" stroke-width="2" stroke="#FFFFFF" fill="none"/>
			<path d="M366.2,2c0,4.8-3.9,8.7-8.7,8.7s-8.7-3.9-8.7-8.7
				" stroke-miterlimit="10" stroke-width="2" stroke="#FFFFFF" fill="none"/>
			<path d="M383.5,2c0,4.8-3.9,8.7-8.7,8.7s-8.7-3.9-8.7-8.7
				" stroke-miterlimit="10" stroke-width="2" stroke="#FFFFFF" fill="none"/>
			<path d="M400.9,2c0,4.8-3.9,8.7-8.7,8.7s-8.7-3.9-8.7-8.7
				" stroke-miterlimit="10" stroke-width="2" stroke="#FFFFFF" fill="none"/>
			<path d="M418.2,2c0,4.8-3.9,8.7-8.7,8.7s-8.7-3.9-8.7-8.7
				" stroke-miterlimit="10" stroke-width="2" stroke="#FFFFFF" fill="none"/>
			<path d="M435.5,2c0,4.8-3.9,8.7-8.7,8.7s-8.7-3.9-8.7-8.7
				" stroke-miterlimit="10" stroke-width="2" stroke="#FFFFFF" fill="none"/>
			<path d="M452.9,2c0,4.8-3.9,8.7-8.7,8.7s-8.7-3.9-8.7-8.7
				" stroke-miterlimit="10" stroke-width="2" stroke="#FFFFFF" fill="none"/>
			<path d="M470.2,2c0,4.8-3.9,8.7-8.7,8.7s-8.7-3.9-8.7-8.7
				" stroke-miterlimit="10" stroke-width="2" stroke="#FFFFFF" fill="none"/>
			<path d="M487.5,2c0,4.8-3.9,8.7-8.7,8.7s-8.7-3.9-8.7-8.7
				" stroke-miterlimit="10" stroke-width="2" stroke="#FFFFFF" fill="none"/>
			<path d="M504.9,2c0,4.8-3.9,8.7-8.7,8.7s-8.7-3.9-8.7-8.7
				" stroke-miterlimit="10" stroke-width="2" stroke="#FFFFFF" fill="none"/>
			<path d="M522.2,2c0,4.8-3.9,8.7-8.7,8.7
				c-4.8,0-8.7-3.9-8.7-8.7" stroke-miterlimit="10" stroke-width="2" stroke="#FFFFFF" fill="none"/>
			<path d="M539.5,2c0,4.8-3.9,8.7-8.7,8.7
				c-4.8,0-8.7-3.9-8.7-8.7" stroke-miterlimit="10" stroke-width="2" stroke="#FFFFFF" fill="none"/>
			<path d="M556.9,2c0,4.8-3.9,8.7-8.7,8.7
				c-4.8,0-8.7-3.9-8.7-8.7" stroke-miterlimit="10" stroke-width="2" stroke="#FFFFFF" fill="none"/>
			<path d="M574.2,2c0,4.8-3.9,8.7-8.7,8.7
				c-4.8,0-8.7-3.9-8.7-8.7" stroke-miterlimit="10" stroke-width="2" stroke="#FFFFFF" fill="none"/>
			<path d="M591.5,2c0,4.8-3.9,8.7-8.7,8.7
				c-4.8,0-8.7-3.9-8.7-8.7" stroke-miterlimit="10" stroke-width="2" stroke="#FFFFFF" fill="none"/>
			<path d="M608.9,2c0,4.8-3.9,8.7-8.7,8.7
				c-4.8,0-8.7-3.9-8.7-8.7" stroke-miterlimit="10" stroke-width="2" stroke="#FFFFFF" fill="none"/>
			<path d="M626.2,2c0,4.8-3.9,8.7-8.7,8.7
				c-4.8,0-8.7-3.9-8.7-8.7" stroke-miterlimit="10" stroke-width="2" stroke="#FFFFFF" fill="none"/>
			<path d="M643.5,2c0,4.8-3.9,8.7-8.7,8.7
				c-4.8,0-8.7-3.9-8.7-8.7" stroke-miterlimit="10" stroke-width="2" stroke="#FFFFFF" fill="none"/>
			<path d="M660.9,2c0,4.8-3.9,8.7-8.7,8.7
				c-4.8,0-8.7-3.9-8.7-8.7" stroke-miterlimit="10" stroke-width="2" stroke="#FFFFFF" fill="none"/>
			<path d="M678.2,2c0,4.8-3.9,8.7-8.7,8.7
				c-4.8,0-8.7-3.9-8.7-8.7" stroke-miterlimit="10" stroke-width="2" stroke="#FFFFFF" fill="none"/>
			<path d="M695.5,2c0,4.8-3.9,8.7-8.7,8.7
				c-4.8,0-8.7-3.9-8.7-8.7" stroke-miterlimit="10" stroke-width="2" stroke="#FFFFFF" fill="none"/>
			<path d="M712.9,2c0,4.8-3.9,8.7-8.7,8.7
				c-4.8,0-8.7-3.9-8.7-8.7" stroke-miterlimit="10" stroke-width="2" stroke="#FFFFFF" fill="none"/>
			<path d="M730.2,2c0,4.8-3.9,8.7-8.7,8.7s-8.7-3.9-8.7-8.7
				" stroke-miterlimit="10" stroke-width="2" stroke="#FFFFFF" fill="none"/>
			<path d="M747.5,2c0,4.8-3.9,8.7-8.7,8.7
				c-4.8,0-8.7-3.9-8.7-8.7" stroke-miterlimit="10" stroke-width="2" stroke="#FFFFFF" fill="none"/>
			<path d="M764.9,2c0,4.8-3.9,8.7-8.7,8.7
				c-4.8,0-8.7-3.9-8.7-8.7" stroke-miterlimit="10" stroke-width="2" stroke="#FFFFFF" fill="none"/>
			<path d="M782.2,2c0,4.8-3.9,8.7-8.7,8.7
				c-4.8,0-8.7-3.9-8.7-8.7" stroke-miterlimit="10" stroke-width="2" stroke="#FFFFFF" fill="none"/>
			<path d="M799.5,2c0,4.8-3.9,8.7-8.7,8.7
				c-4.8,0-8.7-3.9-8.7-8.7" stroke-miterlimit="10" stroke-width="2" stroke="#FFFFFF" fill="none"/>
			<path d="M816.9,2c0,4.8-3.9,8.7-8.7,8.7
				c-4.8,0-8.7-3.9-8.7-8.7" stroke-miterlimit="10" stroke-width="2" stroke="#FFFFFF" fill="none"/>
			<path d="M834.2,2c0,4.8-3.9,8.7-8.7,8.7
				c-4.8,0-8.7-3.9-8.7-8.7" stroke-miterlimit="10" stroke-width="2" stroke="#FFFFFF" fill="none"/>
			<path d="M851.5,2c0,4.8-3.9,8.7-8.7,8.7
				c-4.8,0-8.7-3.9-8.7-8.7" stroke-miterlimit="10" stroke-width="2" stroke="#FFFFFF" fill="none"/>
			<path d="M868.9,2c0,4.8-3.9,8.7-8.7,8.7
				c-4.8,0-8.7-3.9-8.7-8.7" stroke-miterlimit="10" stroke-width="2" stroke="#FFFFFF" fill="none"/>
			<path d="M886.2,2c0,4.8-3.9,8.7-8.7,8.7
				c-4.8,0-8.7-3.9-8.7-8.7" stroke-miterlimit="10" stroke-width="2" stroke="#FFFFFF" fill="none"/>
			<path d="M903.5,2c0,4.8-3.9,8.7-8.7,8.7
				c-4.8,0-8.7-3.9-8.7-8.7" stroke-miterlimit="10" stroke-width="2" stroke="#FFFFFF" fill="none"/>
			<path d="M920.9,2c0,4.8-3.9,8.7-8.7,8.7
				c-4.8,0-8.7-3.9-8.7-8.7" stroke-miterlimit="10" stroke-width="2" stroke="#FFFFFF" fill="none"/>
			<path d="M938.2,2c0,4.8-3.9,8.7-8.7,8.7
				c-4.8,0-8.7-3.9-8.7-8.7" stroke-miterlimit="10" stroke-width="2" stroke="#FFFFFF" fill="none"/>
			<path d="M955.5,2c0,4.8-3.9,8.7-8.7,8.7
				c-4.8,0-8.7-3.9-8.7-8.7" stroke-miterlimit="10" stroke-width="2" stroke="#FFFFFF" fill="none"/>
			<path d="M972.9,2c0,4.8-3.9,8.7-8.7,8.7
				c-4.8,0-8.7-3.9-8.7-8.7" stroke-miterlimit="10" stroke-width="2" stroke="#FFFFFF" fill="none"/>
			<path d="M990.2,2c0,4.8-3.9,8.7-8.7,8.7
				c-4.8,0-8.7-3.9-8.7-8.7" stroke-miterlimit="10" stroke-width="2" stroke="#FFFFFF" fill="none"/>
			<path d="M1007.5,2c0,4.8-3.9,8.7-8.7,8.7
				c-4.8,0-8.7-3.9-8.7-8.7" stroke-miterlimit="10" stroke-width="2" stroke="#FFFFFF" fill="none"/>
			<path d="M1024.9,2c0,4.8-3.9,8.7-8.7,8.7
				c-4.8,0-8.7-3.9-8.7-8.7" stroke-miterlimit="10" stroke-width="2" stroke="#FFFFFF" fill="none"/>
			<path d="M1042.2,2c0,4.8-3.9,8.7-8.7,8.7
				c-4.8,0-8.7-3.9-8.7-8.7" stroke-miterlimit="10" stroke-width="2" stroke="#FFFFFF" fill="none"/>
			<path d="M1059.5,2c0,4.8-3.9,8.7-8.7,8.7
				c-4.8,0-8.7-3.9-8.7-8.7" stroke-miterlimit="10" stroke-width="2" stroke="#FFFFFF" fill="none"/>
			<path d="M1076.9,2c0,4.8-3.9,8.7-8.7,8.7
				s-8.7-3.9-8.7-8.7" stroke-miterlimit="10" stroke-width="2" stroke="#FFFFFF" fill="none"/>
			<path d="M1094.2,2c0,4.8-3.9,8.7-8.7,8.7
				c-4.8,0-8.7-3.9-8.7-8.7" stroke-miterlimit="10" stroke-width="2" stroke="#FFFFFF" fill="none"/>
		</g>
	</g>
</g>
<g display="none" id="Template_Files">
	<g display="inline" id="Baseline">
	</g>
	<g display="inline" id="_x31_6_Columns">
	</g>
	<g id="_x33__Columns">
	</g>
	<g display="inline" id="Guides">
	</g>
</g>
<g id="Presentation">
</g>
<g display="none" id="Documentation">
</g>
<g id="Isolation_Mode">
</g>
</svg>