<svg xml:space="preserve" style="enable-background:new 0 0 311.2 183.2;" viewBox="0 0 311.2 183.2" y="0px" x="0px" xmlns:xlink="http://www.w3.org/1999/xlink" xmlns="http://www.w3.org/2000/svg" id="Layer_1" version="1.1">
<style type="text/css">
	.st2{fill:#181f76;}
	.st3{fill:none;stroke:#181f76;stroke-width:2;stroke-miterlimit:10;}
</style>
<g>
	<g>
		<path d="M31.4,48.1l-0.6-0.2l-0.5-0.4L30,47.1l-1-2.5l-0.1-0.5l-0.3-0.5l-0.4-0.9L28,42.2l-0.7-1.4l-0.2-0.5L24.8,35
			l-0.2-0.5l-0.3-0.4l-0.2-0.5L24,33.1l-0.3-0.4l-0.8-2.2l0.2-0.5l0.4-0.2h1l0.5-0.1l1.5,0.1l0.6,0.3l0.4,0.4l0.7,2l0.7,1.4l1.3,3.4
			l0.4,0.9l0.1,0.5l0.7,1.4l0.3,0.1l0.3-0.5l0.5-1.5l0.3-0.5l0.1-0.5l0.2-0.4l0.2-0.5l2.4-5.7l0.4-0.4l0.6-0.3l1,0.1l0.5,0l0.5-0.1
			l0.5,0.1l0.5,0.1l0.5,0.1l0.1,0.5l-0.2,0.7l-0.5,0.9l-0.1,0.5l-0.4,0.9L38.9,34l-2.3,5.4l-0.5,0.8l-0.2,0.6l-1,2.4l-0.3,0.5
			l-0.2,0.4l-0.3,0.5l-0.2,0.5L33.6,46l-0.2,0.5l-0.3,0.7L32.5,48l-0.6,0.2L31.4,48.1z" class="st2"/>
		<path d="M49.5,47.9h-1.3L47.4,48l-1-0.1L45.8,48L45,48l-0.8-0.1L43.8,48h-0.5l-0.5-0.2L42.5,47l0.1-2.4l0.3-0.5
			l1.7-0.5l0.3-0.8l-0.1-8l-0.2-0.7l-0.5-0.3h-0.5L43,33.5L42.7,33l0.1-0.5l-0.1-1.9l0.3-0.6l0.5-0.3H44l0.5,0.1h2.1l0.5-0.1
			l0.5,0.1h3.2l0.5,0.3l0.3,0.5l0,2.6l-0.3,0.4l-0.5,0.2l-0.5,0.1L49.7,34l-0.2,0.6l-0.1,2.6l0.1,1.9l-0.1,0.6l0,2.9l-0.1,0.5
			l0.3,0.6l0.6,0.2h0.5l0.6,0.3l0.3,0.5v2.6l-0.3,0.5L51,48l-1,0.1L49.5,47.9z" class="st2"/>
		<path d="M62.4,48L61.9,48l-0.6,0l-0.5-0.1L59.7,48l-0.5,0L58.7,48l-1.9,0L56,47.7l-0.2-0.7l-0.1-0.6l0.1-1.8l-0.1-0.5
			l0.1-0.5l0-4.2l-0.1-0.5l0-2.1l0.1-0.5l-0.1-0.5l0.1-2.6l-0.1-0.6l0.1-1.1l-0.1-1l0.3-0.5l0.5-0.2l0.5,0l0.5-0.1l0.5,0.1l0.5-0.1
			l0.5,0.1l2.1-0.1l0.5,0.1l0.4,0l0.5,0.1l0.6-0.1l2.1,0l0.5,0.1h0.5L67,30l0.2,0.5l0.1,1.6l0,0.5l0,0.5L67,33.6l-0.5,0.3l-0.5,0
			l-3.7-0.1L61.7,34l-0.5,0l-0.6,0.2l-0.2,0.5v0.8l0.2,0.8l0.5,0.2l1.5-0.1l1.1,0.1l0.5-0.1h1.5l0.6,0.3l0.3,0.7l-0.1,2.3l-0.2,0.5
			L66,40.6l-0.6,0l-0.5,0.1l-1.1,0l-1,0.1L62,40.6l-0.8,0l-0.5,0.3l-0.2,0.5v1.6l0.2,0.5l0.5,0.3l0.6-0.1l0.5,0.1l0.6,0l0.5,0.1
			l0.9-0.1l1.3,0l0.5,0.1l0.6-0.1l0.5,0.2l0.3,0.5v2.6l-0.3,0.5L66.7,48L62.9,48L62.4,48z" class="st2"/>
		<path d="M75.8,46.9l-0.2-0.5l-2.1-5.9l-0.2-0.4l-0.7-2l-0.2-0.6l-1.1-2.9l-0.2-0.4l-1.1-3l-0.1-0.7l0.1-0.6l0.5-0.2
			l0.5,0l0.5-0.1l0.5,0.1l2.1,0l0.5,0.2l0.5,0.4l0.2,0.5l0.1,0.5l0.3,1l0.2,0.4l1.7,5.7l0.1,0.6l0.2,0l0.4-1l0.1-0.5l0.3-0.4l0.9-3
			l0.4-0.9l0.9-2.6l0.4-0.5l0.5-0.3h0.6l0.5,0.3l0.4,0.5l0.2,0.5l0.2,0.4l0.3,1l0.2,0.5l0.3,1l1.1,2.9l0.1,0.5l0.5,1.5l0.3,0
			l0.2-0.5l0.2-1.1l0.3-1.1l0.1-0.5l1.4-4.6l0.2-0.4l0.1-0.5l0.4-0.5l0.5-0.3l0.5,0.1l0.5-0.1l1,0.1l0.9-0.1l0.5,0.1l0.5,0.1
			l0.2,0.6l-0.5,1.6l-0.3,0.5l-0.1,0.6l-1.7,4.4l-0.1,0.4l-0.2,0.5l-0.2,0.7l-0.9,2.2L90,41.9l-1.6,4.5l-0.2,0.5l-0.2,0.5l-0.4,0.5
			l-0.6,0.2l-0.4,0.1l-0.5,0l-0.6-0.3L85,47.4l-0.2-0.5L84.5,46L83,42l-0.4-0.9l-0.2-0.5l-0.3-0.4L81.9,40l-0.3,1l-0.5,1l-0.2,0.5
			l-0.8,1.9L80,44.9l-0.2,0.5l-0.1,0.4l-0.3,0.5L79.2,47L79,47.4L78.5,48L78,48.2l-1,0l-0.6-0.3L76,47.4L75.8,46.9z" class="st2"/>
		<path d="M111.2,48.2l-2.2-0.7l-0.5-0.2l-1.8-0.9l-0.3-0.4l-0.7-0.7l-1.2-1.7l-0.3-0.5l-0.2-0.5l-0.4-0.9l-0.3-1.6
			l0.1-3l0.2-1.1l0.5-1.4l0.2-0.4l0.9-1.3l0.7-0.8l0.8-0.6l0.4-0.3l1.3-0.8l1-0.3l0.5-0.2l0.5-0.2l0.5-0.1l1.8-0.1l1.2,0l3.4,1.1
			l1.3,0.8l1.1,1l0.3,0.5l0.3,0.3l0.3,0.4l0.2,0.5l0.5,0.9l0.1,0.6l0.2,0.5l0.2,1l0.1,1.8l-0.1,1.8l-0.1,0.6l-0.2,0.4l-0.1,0.5
			l-0.2,0.5l-1,1.8l-0.3,0.5l-1.8,1.7l-2.3,1l-1,0.3l-2.3,0.2L111.2,48.2z M113.5,43.7l0.5-0.1l0.5-0.1l0.4-0.2l0.5-0.2l0.8-0.6
			l0.3-0.5l0.2-0.4l0.3-0.4l0.2-1.1l0.2-1.3l-0.1-1.1l-0.2-0.5l-0.2-0.5l-0.2-0.5l-0.6-0.9l-0.8-0.6l-1.4-0.6l-1.3-0.1l-1.2,0.1
			l-0.5,0.1l-0.5,0.2l-0.8,0.5l-0.4,0.3l-0.3,0.4l-0.2,0.4l-0.3,0.4l-0.2,0.5l-0.2,1l0,0.8l0.1,1.3l0.5,1.5l0.3,0.4l0.3,0.4l0.8,0.7
			l0.9,0.5l0.5,0.1l0.5,0.2L113.5,43.7z" class="st2"/>
		<path d="M132.1,48.3h-0.5l-1-0.2l-1-0.4l-0.4-0.2l-0.5-0.2l-0.8-0.5l-0.4-0.3l-0.3-0.4l-0.6-0.9l-0.4-0.9l-0.3-1.1
			l-0.2-2.1l0.1-4.2l-0.1-0.5l0.1-0.5l-0.1-3.7l0.1-0.4V31l-0.1-0.5L126,30l0.5-0.2l0.5-0.1l1.1,0.1l0.5-0.1h0.5l0.5,0.2l0.3,0.6
			l0.1,0.8l-0.1,0.8l0.1,0.4l-0.1,8.4l0.2,1.5l0.2,0.5l0.3,0.4l0.4,0.3l0.4,0.3l0.6,0.1h1.6l0.9-0.3l0.4-0.3l0.3-0.5l0.2-0.4
			l0.2-1.6l-0.1-10.3L136,30l0.5-0.3l1.1,0.1l1.6-0.1l0.6,0.2l0.3,0.5l-0.1,0.5v2.2l0.1,0.4l-0.1,0.6l0.1,0.5v7L140,43l-0.2,1.1
			l-0.3,0.4l-0.2,0.5l-0.6,0.9l-0.7,0.7l-0.9,0.6l-0.9,0.5l-2,0.5l-0.5,0l-0.8,0.1L132.1,48.3z" class="st2"/>
		<path d="M144.7,43l-0.1-0.5l0-2.1l0.1-0.5l-0.1-0.5v-0.5l0-0.6l0.1-1l-0.1-0.5l0-6l0.3-0.7l0.5-0.3l1.5-0.1l0.6,0
			l0.5,0.1h0.5l0.5-0.1h0.5l0.5,0.1h1.6l0.8-0.1l0.8,0l1.5,0.3l1,0.3l0.9,0.5l1.5,1.6l0.3,0.4l0.2,0.4l0.5,1.5l0.1,0.5l0.1,1.6
			l-0.3,1.5l-1,1.8l-0.4,0.3l-0.4,0.4l-0.2,0.6l0,0.6l0.3,0.4l0.8,1.4l0.2,0.5l0.9,1.3l0.2,0.5l0.3,0.4l0.3,0.6l-0.2,0.6l-0.5,0.2
			l-0.9,0L158,48l-2.1,0l-0.9-0.2l-0.6-0.5l-0.3-0.4l-0.2-0.5l-0.3-0.4l-0.5-0.9l-0.5-0.8l-0.2-0.5l-0.3-0.5l-0.5-0.4l-1.5-0.2
			l-0.5,0.3l-0.2,0.5l-0.1,1.7l0.1,0.5l-0.1,0.5V47l-0.2,0.8l-0.8,0.3h-0.8l-0.4,0.1l-0.8-0.1l-0.5,0.1l-0.8-0.3l-0.3-0.8V43z
			 M150.7,38.4l1.3,0.1l0.5,0l0.8-0.2l0.5-0.2l0.3-0.2l0.3-0.4l0.2-0.5l0.1-0.8l-0.1-0.7l-0.2-0.4l-0.7-0.8l-0.5-0.1l-0.7-0.1
			l-0.7-0.2l-1,0.1l-0.5,0l-0.5,0.2l-0.2,0.5l-0.1,1.1l0.1,0.4v1.6l0.2,0.4l0.5,0.3L150.7,38.4z" class="st2"/>
	</g>
	<g>
		<g>
			<path d="M24.1,138.4l-1-2l0.1-20.9l-0.2-1.8l0.3-9.6l-0.2-1.9l0.1-15.2L23,85.4l0.3-3.7L23,75.9l1-2l2.1-0.9l2.7,0.8
				l2.2,1.6l2.5,2.6l1.5,1.3l2.5,2.9l1.3,1.1l8.6,9.6l2.1,1.9l1.7,2.2l1.3,1.3l1.1,1.6l2,0.8l1.7-1.1l5.8-5.9l1.2-1.6l8.3-8.5
				l1.3-1.7l1.1-1l1.2-1.5l4-4.2l2-1.2l2.7-0.9l2,1l1.1,2l-0.2,1.8l0.1,3.9l-0.1,1.6l0.2,4.1L88,89.1l0.1,9.4l-0.2,2.1l0.2,28.4
				l-0.2,1.9l0.3,4.9l-1.1,2.7l-2,1l-11.5-0.4l-2-0.6l-0.8-2.2v-1.4l-0.2-4.3l0.2-1.7l-0.2-3.5l0.2-3.7l-0.3-3.8l0.2-5.2l-0.8-1.4
				l-1.2,0.6l-3.9,4l-1.3,0.9l-2.7,3.1l-1.1,1.1l-1.3,1.4l-1.9,1.4l-2.1-0.1l-2-1.4l-2.6-2.5l-1.2-1.5l-3.9-3.9l-1.1-1.4l-1.5-1.2
				l-0.9-0.4l-0.9,0.9v3.7l0.2,2.1l-0.2,3.4l0.1,2l-0.3,2.9l0.3,9.9l-1.1,1.7l-2.7,1.1l-3-0.2l-2.1,0.3l-3.7-0.2l-1.9,0.3
				L24.1,138.4z" class="st2"/>
			<path d="M129.2,139.4l-1.9,0.2l-2.2-0.1l-1.8-0.4l-3.9,0.3l-1.7-0.1l-2.1,0.2l-6.8-0.1l-2.8-1.2l-0.8-2.6l-0.2-2.1
				l0.3-6.5l-0.3-1.9l0.2-1.8l0.1-15.3l-0.3-1.7l0.1-7.8l0.2-1.8l-0.3-2l0.2-9.3l-0.3-2.1l0.3-3.9l-0.2-3.6l1-2l2-0.8l1.9,0.1
				l1.9-0.2l1.7,0.2l1.8-0.4l1.9,0.3l7.8-0.2l1.9,0.2l1.6-0.1l1.9,0.2l2.1-0.2l7.7-0.1l1.7,0.4h2l1.9,0.8l0.9,1.8l0.2,5.7l-0.1,1.9
				l0.1,1.9l-0.9,1.7l-2,1.1l-1.8,0.1l-13.5-0.2l-1.8,0.4l-1.8-0.1l-2.1,0.8l-0.9,1.8v2.9l0.8,2.9l2,0.9l5.5-0.2l4,0.3l2-0.2h5.6
				l2.2,1.2l0.9,2.7l-0.3,8.5l-0.7,1.9l-1.9,0.8l-2.2-0.1l-1.9,0.2l-3.9-0.1l-3.6,0.2l-3-0.3l-2.8,0.1l-1.7,1l-0.9,2v6l0.8,1.7
				l2,0.9l2.1-0.2l1.8,0.3l2.1-0.1l1.9,0.2l3.1-0.4l4.8,0.1l1.8,0.3l2.2-0.2l2,0.9l1,1.9v9.6l-1,2l-2,0.9l-13.5,0.2L129.2,139.4z" class="st2"/>
			<path d="M209.8,136.5l-2.5-2.7l-14.7-14.6l-1.6-1l-1.2-1.4l-6.7-6.4l-1.2-1.6l-1.2-0.5l-0.7,1.6l-0.2,1.9l-0.1,24
				l-0.9,2.9l-1.9,0.9l-2,0.1l-3.7-0.3l-2.1,0.2l-3.9-0.2l-2-0.7l-0.9-1.8l-0.2-8l0.2-1.8l-0.2-15.5l0.3-1.6l-0.2-3.9l0.1-1.6V75.8
				l0.9-1.8l2.2-0.9l2.8,0.7l2.2,1.1l1.4,1.1l18.7,18.8l2.7,2.1l6.7,6.7l1.4,0.7l0.6-1.6l0.2-17l-0.2-2.1l0.3-4l-0.3-1.5l0.1-2l1-2
				l1.8-1l11.7-0.1l1.9,1l0.9,1.9l0.3,13.2l-0.3,2.3v9.4l0.3,1.6l-0.2,34.6l-0.9,1.9l-2.1,0.7l-2.7-0.3l-2.6-1.5L209.8,136.5z" class="st2"/>
			<path d="M259.1,140.4h-1.9l-3.7-0.8l-3.6-1.6l-1.4-0.9l-1.9-0.9l-3-2l-1.4-1.2l-1.1-1.3l-2.2-3.4l-1.5-3.2l-0.9-3.9
				l-0.6-7.6l0.3-15.2l-0.2-1.8l0.3-1.9l-0.3-13.3l0.2-1.5v-2.3l-0.2-1.9l1.2-1.8l2-0.8l2-0.3l4.1,0.4l1.9-0.3h1.8l2,0.9L252,76
				l0.2,2.7l-0.2,3l0.2,1.4l-0.3,30.5l0.6,5.5l0.6,1.8l1.1,1.5l1.5,1.1l1.6,0.9l2.2,0.5h5.7l3.3-1.2l1.6-1.1l1-1.9l0.6-1.4l0.7-5.9
				l-0.2-37.3l1-2.1l2-0.9l4,0.3l6-0.2l2.1,0.7l1.2,2l-0.3,1.9v7.9l0.2,1.5l-0.2,2.1l0.2,1.8v25.6l-0.5,4.5l-0.9,4l-0.9,1.6
				l-0.6,1.9l-2.2,3.3l-2.7,2.7l-3.1,2.1l-3.4,1.8l-7.4,1.9l-1.8-0.1l-2.8,0.3L259.1,140.4z" class="st2"/>
		</g>
	</g>
	<g id="wave-pattern">
		<path d="M289.4,160.9c0,5-4,9-9,9c-5,0-9-4-9-9c0,5-4,9-9,9c-5,0-9-4-9-9c0,5-4,9-9,9s-9-4-9-9c0,5-4,9-9,9s-9-4-9-9
			c0,5-4,9-9,9s-9-4-9-9c0,5-4,9-9,9s-9-4-9-9c0,5-4,9-9,9s-9-4-9-9c0,5-4,9-9,9s-9-4-9-9c0,5-4,9-9,9s-9-4-9-9c0,5-4,9-9,9
			s-9-4-9-9c0,5-4,9-9,9s-9-4-9-9c0,5-4,9-9,9s-9-4-9-9c0,5-4,9-9,9s-9-4-9-9c0,5-4,9-9,9s-9-4-9-9c0,5-4,9-9,9s-9-4-9-9" class="st3" style="transition: stroke-dashoffset 1.5s ease-in 0s; stroke-dasharray: 424.558, 424.558; stroke-dashoffset: 849.117;"/>
	</g>
	<line y2="12" x2="289.4" y1="12" x1="20.5" class="st3"/>
</g>
</svg>