<?xml version="1.0" encoding="utf-8"?>
<!-- Generator: Adobe Illustrator 25.4.3, SVG Export Plug-In . SVG Version: 6.00 Build 0)  -->
<svg version="1.1" id="Layer_1" xmlns="http://www.w3.org/2000/svg" xmlns:xlink="http://www.w3.org/1999/xlink" x="0px" y="0px" viewBox="-447 303.3 327.1 186.7" style="enable-background:new -447 303.3 327.1 186.7;" xml:space="preserve">
<style type="text/css">
	.st0-seasonal{enable-background:new    ;}
	.st1-seasonal{fill:#E01F2B;}
	.st2-seasonal{fill:none;stroke:#E01F2B;stroke-width:2;stroke-miterlimit:10;}
</style>
<g>
	<g class="st0-seasonal">
		<path class="st1-seasonal" d="M-428.1,345.3l-0.5-0.2l-0.5-0.4l-0.2-0.4l-1-2.4l-0.1-0.5l-0.3-0.4l-0.4-0.8l-0.2-0.5l-0.6-1.3l-0.1-0.5
			l-2.2-5l-0.2-0.5l-0.3-0.4l-0.2-0.5l-0.1-0.5l-0.2-0.4l-0.8-2.1l0.2-0.5l0.4-0.2h0.9l0.5-0.1l1.4,0l0.6,0.2l0.4,0.4l0.7,1.9
			l0.6,1.3l1.2,3.2l0.4,0.8l0.1,0.5l0.6,1.3l0.3,0l0.2-0.4l0.5-1.4l0.2-0.4l0.1-0.4l0.2-0.4l0.1-0.5l2.3-5.5l0.4-0.4l0.5-0.3
			l0.9,0.1l0.5,0l0.5,0l0.4,0.1l0.5,0l0.4,0.1l0.1,0.5l-0.2,0.7l-0.5,0.9l-0.1,0.5l-0.4,0.9l-0.2,0.4l-2.2,5.1l-0.4,0.8l-0.2,0.5
			l-1,2.3l-0.3,0.4l-0.1,0.4l-0.2,0.5l-0.1,0.5l-0.5,0.8l-0.1,0.5l-0.3,0.7l-0.5,0.7l-0.6,0.2L-428.1,345.3z"></path>
		<path class="st1-seasonal" d="M-411.6,345.1h-1.2l-0.7,0.1l-1-0.1l-0.5,0l-0.8,0l-0.7-0.1l-0.5,0h-0.5l-0.5-0.2l-0.2-0.7l0.1-2.3l0.3-0.4
			l1.6-0.5l0.3-0.7l-0.1-7.6l-0.2-0.7l-0.5-0.3h-0.5l-0.5-0.3l-0.3-0.5l0-0.5l-0.1-1.8l0.2-0.6l0.5-0.2h0.6l0.5,0.1h2l0.5-0.1l0.4,0
			h3l0.4,0.3l0.3,0.5l0,2.5l-0.2,0.4l-0.5,0.2l-0.5,0.1l-0.5,0.2l-0.2,0.6l-0.1,2.5l0.1,1.8l0,0.5l0,2.7l-0.1,0.5l0.3,0.6l0.6,0.2
			h0.5l0.5,0.3l0.3,0.5v2.5l-0.2,0.5l-0.4,0.2l-1,0L-411.6,345.1z"></path>
		<path class="st1-seasonal" d="M-400,345.2l-0.5,0l-0.6,0l-0.5-0.1l-1,0.1l-0.4,0l-0.5,0l-1.8,0l-0.7-0.3l-0.2-0.7l0-0.5l0.1-1.7l-0.1-0.5
			l0-0.5l0-4l-0.1-0.4l0-2l0-0.5l-0.1-0.5l0-2.4l-0.1-0.5l0.1-1l0-0.9l0.3-0.5l0.5-0.2l0.5,0l0.5,0l0.4,0l0.5-0.1l0.5,0.1l2,0l0.5,0
			l0.4,0l0.5,0l0.5,0l2,0l0.4,0.1h0.5l0.5,0.2l0.2,0.5l0,1.5l0,0.5l0,0.5l-0.2,0.4l-0.5,0.3l-0.5,0l-3.6,0l-0.5,0.1l-0.5,0l-0.5,0.2
			l-0.2,0.5v0.8l0.2,0.8l0.5,0.2l1.4,0l1,0.1l0.5,0h1.5l0.6,0.3l0.2,0.7l-0.1,2.2l-0.2,0.5l-0.5,0.2l-0.6,0l-0.5,0l-1,0l-0.9,0
			l-0.8-0.1l-0.7,0l-0.4,0.3l-0.2,0.5v1.6l0.2,0.4l0.5,0.2l0.5,0l0.5,0.1l0.5,0l0.5,0l0.8-0.1l1.3,0l0.5,0.1l0.6,0l0.5,0.2l0.3,0.5
			v2.5l-0.3,0.5l-0.5,0.2l-3.6,0L-400,345.2z"></path>
		<path class="st1-seasonal" d="M-388,344.2l-0.2-0.5l-2-5.6l-0.2-0.4l-0.7-1.9l-0.1-0.5l-1-2.8l-0.2-0.4l-1-2.8l-0.1-0.7l0.1-0.6l0.5-0.1
			l0.5,0l0.4-0.1l0.4,0.1l2,0l0.5,0.2l0.4,0.4l0.2,0.5l0.1,0.5l0.3,1l0.2,0.4l1.6,5.4l0.1,0.6l0.2,0l0.4-0.9l0.1-0.5l0.2-0.4
			l0.9-2.9l0.4-0.9l0.8-2.5l0.4-0.5l0.5-0.2h0.5l0.5,0.3l0.3,0.5l0.2,0.4l0.2,0.4l0.3,1l0.2,0.5l0.2,0.9l1.1,2.8l0.1,0.5l0.5,1.4
			l0.2,0l0.1-0.5l0.2-1l0.3-1l0.1-0.5l1.4-4.4l0.2-0.4l0.1-0.5l0.4-0.5l0.5-0.2l0.5,0.1l0.5,0l1,0l0.9,0l0.5,0.1l0.5,0.1l0.1,0.6
			l-0.5,1.5l-0.2,0.4l-0.1,0.5l-1.6,4.2l-0.1,0.4l-0.2,0.4l-0.2,0.7l-0.8,2.1l-0.2,0.4l-1.5,4.3l-0.2,0.4l-0.1,0.5l-0.4,0.4
			l-0.6,0.2l-0.4,0.1l-0.5,0l-0.6-0.3l-0.5-0.5l-0.1-0.5l-0.4-0.8l-1.4-3.8l-0.4-0.8l-0.1-0.5l-0.2-0.4l-0.2-0.1l-0.3,1l-0.4,0.9
			l-0.1,0.5l-0.8,1.8l-0.1,0.4l-0.2,0.5l-0.1,0.4l-0.2,0.4l-0.1,0.5l-0.2,0.4l-0.4,0.5l-0.5,0.2l-0.9,0l-0.5-0.3l-0.4-0.4
			L-388,344.2z"></path>
		<path class="st1-seasonal" d="M-355.8,345.4l-2.1-0.6l-0.5-0.2l-1.7-0.9l-0.3-0.4l-0.7-0.7l-1.2-1.6l-0.2-0.4l-0.1-0.5l-0.4-0.8l-0.3-1.6
			l0.1-2.9l0.2-1.1l0.5-1.4l0.2-0.4l0.8-1.2l0.7-0.7l0.8-0.5l0.3-0.3l1.3-0.8l0.9-0.2l0.4-0.2l0.5-0.1l0.5-0.1l1.7-0.1l1.2,0l3.3,1
			l1.3,0.8l1.1,1l0.3,0.4l0.3,0.3l0.3,0.4l0.2,0.4l0.4,0.8l0.1,0.6l0.2,0.5l0.2,0.9l0.1,1.7l-0.1,1.7l-0.1,0.5l-0.1,0.4l-0.1,0.5
			l-0.2,0.5l-1,1.7l-0.3,0.4l-1.7,1.7l-2.2,1l-0.9,0.3l-2.2,0.2L-355.8,345.4z M-353.6,341.1l0.5-0.1l0.4,0l0.4-0.2l0.4-0.2l0.8-0.6
			l0.3-0.4l0.2-0.4l0.3-0.4l0.2-1l0.1-1.2l-0.1-1.1l-0.2-0.4l-0.1-0.5l-0.2-0.4l-0.6-0.8l-0.8-0.6l-1.3-0.6l-1.2-0.1l-1.1,0.1
			l-0.5,0.1l-0.4,0.2l-0.7,0.5l-0.4,0.3l-0.3,0.4l-0.2,0.4l-0.3,0.3l-0.1,0.4l-0.2,0.9l0,0.7l0.1,1.2l0.5,1.4l0.3,0.3l0.2,0.3
			l0.8,0.7l0.8,0.4l0.4,0l0.5,0.2L-353.6,341.1z"></path>
		<path class="st1-seasonal" d="M-336.6,345.4h-0.5l-1-0.2l-0.9-0.4l-0.4-0.2l-0.5-0.2l-0.8-0.5l-0.4-0.3l-0.3-0.3l-0.6-0.9l-0.4-0.8l-0.2-1
			l-0.1-2l0.1-4l0-0.5l0.1-0.5l-0.1-3.5l0-0.4V329l0-0.5l0.3-0.5l0.5-0.2l0.5-0.1l1.1,0.1l0.5-0.1h0.5l0.5,0.2l0.3,0.5l0,0.7l0,0.8
			l0,0.4l-0.1,8l0.1,1.4l0.1,0.5l0.3,0.4l0.4,0.3l0.4,0.2l0.6,0.1h1.5l0.9-0.3l0.4-0.3l0.3-0.5l0.1-0.4l0.2-1.5l0-9.8l0.3-0.5
			l0.5-0.2l1,0.1l1.6,0l0.5,0.2l0.3,0.5l-0.1,0.5v2.1l0,0.4l0,0.5l0,0.5v6.7l-0.1,1.2l-0.2,1l-0.2,0.4l-0.1,0.5l-0.6,0.9l-0.7,0.7
			l-0.8,0.5l-0.9,0.5l-1.9,0.5l-0.5,0l-0.7,0.1L-336.6,345.4z"></path>
		<path class="st1-seasonal" d="M-325.3,340.5l0-0.5l0-2l0-0.5l0-0.5v-0.5l0-0.5l0.1-1l0-0.5l0-5.7l0.3-0.7l0.4-0.2l1.5-0.1l0.5,0l0.5,0.1
			h0.5l0.4-0.1h0.5l0.5,0.1h1.5l0.7,0l0.8,0l1.4,0.3l0.9,0.3l0.9,0.5l1.4,1.5l0.3,0.4l0.2,0.4l0.4,1.4l0.1,0.5l0,1.6l-0.3,1.4
			l-1,1.7l-0.3,0.3l-0.3,0.4l-0.2,0.5l0,0.6l0.3,0.4l0.8,1.3l0.2,0.4l0.8,1.3l0.2,0.5l0.3,0.3l0.3,0.5l-0.1,0.5l-0.5,0.2l-0.8,0
			l-0.5,0l-2,0l-0.8-0.2l-0.5-0.4l-0.3-0.4l-0.2-0.5l-0.3-0.4l-0.5-0.9l-0.5-0.7l-0.2-0.4l-0.3-0.5l-0.5-0.4l-1.4-0.2l-0.5,0.3
			l-0.2,0.5l0,1.6l0.1,0.5l0,0.4v0.8l-0.2,0.7l-0.8,0.2h-0.7l-0.4,0l-0.8-0.1l-0.5,0.1l-0.7-0.3l-0.2-0.8V340.5z M-319.6,336l1.2,0
			l0.5,0l0.7-0.2l0.4-0.2l0.3-0.2l0.3-0.4l0.2-0.5l0.1-0.7l-0.1-0.6l-0.1-0.4l-0.6-0.8l-0.5-0.1l-0.6,0l-0.7-0.1l-1,0.1l-0.5,0
			l-0.5,0.2l-0.2,0.5l0,1l0,0.4v1.5l0.2,0.4l0.5,0.3L-319.6,336z"></path>
	</g>
</g>
<g>
	<g class="st0-seasonal">
		<path class="st1-seasonal" d="M-433.7,408.8l-1.8-0.6l-0.7-1.1l0.1-11l-0.1-1.1l0.1-15.4l-0.1-1.1l0.2-2.4l-0.1-7.2l0.5-0.9l1.2-0.7
			l1.2-0.2l1.1,0.2l1.3,0.1l3.7-0.2l1.2,0.2l3.6,0.1l1.3-0.2l1.9-0.1l1.8,0.1l1.2,0.4h1.2l1,0.4l2.4,0.7l2,1.3l2.7,2.3l1.4,2l1.1,2
			l0.7,2.2l0.2,1.3l0.2,1l-0.1,4.9l-0.4,0.9l-0.2,1.3l-1,2.3l-1.2,1.9l-0.8,0.9l-0.8,0.8l-0.8,0.9l-0.9,0.7l-5.6,2.3l-6.1,0.5
			l-1.2-0.2l-1.3,0.1l-1.4,0.7l-0.5,1.1l0.1,1.4l-0.1,1.1l0.1,2.2l-0.1,1.3l0.1,1.2l-0.5,1.2l-1.2,0.5l-1.4,0.1l-1.1-0.1l-2.9,0.1
			L-433.7,408.8z M-422.3,388.5l3,0.1l1.8-0.2l0.9-0.3l0.9-0.7l0.8-0.9l0.5-0.9l0.4-1.1l0.1-1.6l-0.1-1.7l-0.2-1.1l-0.6-1.2
			l-0.8-0.8l-0.9-0.7l-1.2-0.5l-6.2-0.2l-1.2,0.6l-0.6,1.1v2.4l-0.1,1.2l0.2,4.8l0.5,1l1.2,0.7L-422.3,388.5z"></path>
		<path class="st1-seasonal" d="M-382.3,408.6h-2.9l-1.8,0.2l-2.4-0.2l-1.2,0.1l-1.8,0.1l-1.7-0.2l-1.1,0.1h-1.1l-1.2-0.5l-0.6-1.6l0.2-5.5
			l0.7-1.1l3.9-1.2l0.7-1.8l-0.2-18.2l-0.5-1.6l-1.1-0.7h-1.2l-1.3-0.7l-0.7-1.2l0.1-1.1l-0.2-4.4l0.6-1.4l1.2-0.6h1.4l1.1,0.2h4.9
			l1.2-0.2l1.1,0.1h7.2l1.1,0.7l0.7,1.1l-0.1,5.9l-0.6,0.9l-1.2,0.5l-1.2,0.2l-1.3,0.5l-0.4,1.4l-0.2,6l0.2,4.3l-0.1,1.3l0.1,6.5
			l-0.2,1.1l0.7,1.4l1.4,0.5h1.2l1.3,0.7l0.7,1.1v5.9l-0.6,1.1l-1.1,0.6l-2.4,0.1L-382.3,408.6z"></path>
		<path class="st1-seasonal" d="M-353.6,408.8l-1.2,0.1l-1.4-0.1l-1.1-0.2l-2.4,0.2l-1.1-0.1l-1.3,0.1l-4.3-0.1l-1.8-0.8l-0.5-1.6l-0.1-1.3
			l0.2-4.1l-0.2-1.2l0.1-1.1l0.1-9.6l-0.2-1.1l0.1-4.9l0.1-1.1l-0.2-1.2l0.1-5.8l-0.2-1.3l0.2-2.4l-0.1-2.3l0.7-1.2l1.2-0.5l1.2,0.1
			l1.2-0.1l1.1,0.1l1.1-0.2l1.2,0.2l4.9-0.1l1.2,0.1l1-0.1l1.2,0.1l1.3-0.1l4.8-0.1l1.1,0.2h1.2l1.2,0.5l0.5,1.1l0.1,3.6l-0.1,1.2
			l0.1,1.2l-0.6,1.1l-1.2,0.7l-1.1,0.1l-8.5-0.1l-1.1,0.2l-1.1-0.1l-1.3,0.5l-0.5,1.1v1.8l0.5,1.8l1.2,0.5l3.4-0.1l2.5,0.2l1.2-0.1
			h3.5l1.4,0.8l0.6,1.7l-0.2,5.3l-0.4,1.2l-1.2,0.5l-1.4-0.1l-1.2,0.1l-2.4-0.1l-2.3,0.1l-1.9-0.2l-1.8,0.1l-1.1,0.7l-0.5,1.2v3.7
			l0.5,1.1l1.2,0.6l1.3-0.1l1.1,0.2l1.3-0.1l1.2,0.1l2-0.2l3,0.1l1.1,0.2l1.4-0.1l1.2,0.5l0.7,1.2v6l-0.7,1.2l-1.2,0.5l-8.5,0.1
			L-353.6,408.8z"></path>
		<path class="st1-seasonal" d="M-324.5,408.8l-2.3-0.8l-1.2-0.4l-1.1-0.5l-0.8-0.9l-2.1-1.3l-0.8-0.9l-0.8-0.8l-1.1-2.2l-0.4-1.1l-0.2-1.2
			l-0.2-1.2l0.5-1.2l1.1-0.5l4.6-0.2l1.1,0.2l1.1-0.1l1.2,0.5l2,2.1l1,0.7l1,0.5l3,0.3l1.1-0.2l1.8-0.1l2-0.9l0.8-0.9l0.5-1.5
			l-0.4-1.5l-0.8-0.7l-2.1-1l-9.3-1.1l-2.1-0.7l-4-2.2l-2.2-2.7l-0.9-2.1l-0.4-2.4l-0.1-1.8l0.2-2.9l1.1-3.3l2.1-2.8l2.8-2l2-1.2
			l2.3-0.7l1.1-0.2l1.2-0.1l1.3-0.4l4.6,0.1l2.3,0.5l3.3,1.1l3.9,2.7l1.3,1.8l1.7,3.1l0.1,1.1l0.2,1.1l-0.5,1l-1.1,0.8l-1.1-0.1
			h-1.2l-1.6-0.1l-2.8,0.2l-1.3-0.8l-0.9-1.2l-1-0.8l-1.1-0.7l-1.1-0.3l-1.9-0.2l-1.9,0.1l-1.1,0.2l-0.9,0.5l-0.9,0.7l-0.7,0.8
			l-0.3,1.6l0.2,1.8l0.9,0.8l2.2,1.1l3.1,0.7h1.7l1.2,0.2l1.2,0.1l1.2,0.2l4.6,1.4l1.1,0.7l0.9,0.5l1.1,0.9l1.5,1.8l0.7,0.9l0.9,3.4
			l0.1,1.9l-0.4,3l-0.4,1l-0.4,1.1l-0.7,1.3l-0.6,0.8l-1.7,1.8l-4,2.4l-1.1,0.5l-1.1,0.1l-1.2,0.5l-1.2,0.2l-1.2,0.3l-1.2,0.1
			l-4.7-0.1L-324.5,408.8z"></path>
		<path class="st1-seasonal" d="M-268.5,408.8l-1.7-0.6l-0.8-1.3l0.1-1.1l0.1-3.4l-0.1-1.2l0.1-4.8l0.1-1.2l-0.2-8.8l0.1-1.7l-0.1-1.2
			l0.1-1.3l-0.1-1.7l0.1-1.9l-0.7-1.2l-1.1-0.6l-5.6-0.1l-1.2,0.1l-1.1-0.6l-0.5-1.1l-0.1-1.8l0.1-3l-0.1-1.2l0.7-1.4l1.1-0.6
			l4.2,0.2l1.8-0.2l3.5,0.2l1.1-0.2l1.3,0.1l1.2-0.2l1.1,0.1l1.2,0.2l4.8-0.2l1.1,0.1l1.2-0.2l1.1,0.1h3.7l1.1,0.8l0.7,1.2l-0.1,5.6
			l-0.7,1.3l-1,0.7l-1.1-0.1l-1.2,0.2l-2.2-0.3l-2.3,0.1l-1.1,0.7l-0.5,1.8l-0.2,5.2l0.2,1.2l-0.1,9.5l0.2,1.3l-0.1,1.1l0.1,2.4
			l-0.1,1.2l0.2,2.3l-0.2,3.1l-0.6,1.7l-1.7,0.6l-4,0.1L-268.5,408.8z"></path>
		<path class="st1-seasonal" d="M-244.1,402.2l-0.2-1.1v-17.7l0.1-1.2l-0.1-1.4l0.1-2.3l-0.2-2.4l0.1-1.2l-0.1-4.6l0.1-1.3l0.6-1.2l1.3-0.6
			l5.9,0.1l1.3-0.1l1.2,0.7l0.5,1.1l0.1,2.2l-0.1,1.3l-0.1,4.6l0.1,1.1v1.2l0.1,1.3l0.6,1.1l1.1,0.5l3.5,0.1l1.1-0.1l1.2,0.1
			l2.3-0.2l1.1,0.2l1.2-0.7l0.7-1.2l0.1-4.6l-0.2-1.1l0.1-2.4l-0.1-1l0.1-2.3l0.6-1.4l1.7-0.4l6.8,0.1l1.2,0.5l0.5,1.2l-0.1,29.8
			l0.2,0.9l-0.2,1.9l0.1,5.4l-0.7,1l-1.1,0.8l-2.4-0.2l-1.2,0.1h-3.1l-1.7-0.8l-0.7-0.9l-0.1-13.1l-0.6-1.1l-1.1-0.7h-1.1l-1.2-0.2
			l-7,0.1l-1.2,0.8l-0.5,1.2v10.5l0.1,1.3l-0.1,1.1l-0.5,1.1l-1.2,0.7l-2.5-0.1l-1.2,0.1l-2.4-0.1l-1.2,0.1l-1.1-0.7l-0.7-1.1
			L-244.1,402.2z"></path>
		<path class="st1-seasonal" d="M-170.4,408.7l-1.4-0.6l-1.2-0.9l-0.4-1.1l-0.5-1.1l-1.1-0.9l-1.3-0.7l-1.3,0.2l-1.1-0.1l-5.8,0.1l-1.1-0.2
			l-2.5,0.2l-1.1-0.2l-1.2,0.7l-1.1,1.1l-1.1,2l-1.1,1.1l-1.4,0.4l-3.3,0.1l-1.2-0.1l-2.3,0.1l-1.2-0.4l-0.3-1.5l0.4-1.2l1.2-2.4
			l0.3-1.1l0.7-0.8l0.9-2.4l1.1-1.9l0.4-1.2l0.6-0.9l0.4-1.3l6-12.7l0.4-1.1l0.7-1.1l0.3-1.2l0.7-0.9l2.4-5.5l0.5-0.8l0.4-1.2l0.5-1
			l1.1-1l1.9-0.7l2,0.6l1,1.1l1.1,2.1l0.4,1.1l0.7,1.1l0.4,1.2l3.9,8.2l0.4,1.2l1.2,2.2l0.4,0.9l0.5,0.9l0.4,1.3l0.6,1.1l0.6,0.9
			l2.3,5.4l1.2,2.1l0.8,2.2l1.6,3.1l0.9,2.2l0.4,1.4l-0.2,1.4l-1.7,0.3l-1.8,0.1l-1.1-0.1l-2.3,0.2L-170.4,408.7z M-180.3,394
			l0.9-0.5l0.2-1.1l-2.8-6.5l-0.8-0.5l-0.7,0.5l-2.8,6.4l0.1,1.1l0.9,0.4l1.4-0.1l1.2,0.2L-180.3,394z"></path>
		<path class="st1-seasonal" d="M-149.8,408.8l-1.7-0.6l-0.8-1.3l0.1-1.1l0.1-3.4l-0.1-1.2l0.1-4.8l0.1-1.2l-0.2-8.8l0.1-1.7l-0.1-1.2
			l0.1-1.3l-0.1-1.7l0.1-1.9l-0.7-1.2l-1.1-0.6l-5.6-0.1l-1.2,0.1l-1.1-0.6l-0.5-1.1l-0.1-1.8l0.1-3l-0.1-1.2l0.7-1.4l1.1-0.6
			l4.2,0.2l1.8-0.2l3.5,0.2l1.1-0.2l1.3,0.1l1.2-0.2l1.1,0.1l1.2,0.2l4.8-0.2l1.1,0.1l1.2-0.2l1.1,0.1h3.7l1.1,0.8l0.7,1.2l-0.1,5.6
			l-0.7,1.3l-1,0.7l-1.1-0.1l-1.2,0.2l-2.2-0.3l-2.3,0.1l-1.1,0.7l-0.5,1.8l-0.2,5.2l0.2,1.2l-0.1,9.5l0.2,1.3l-0.1,1.1l0.1,2.4
			l-0.1,1.2l0.2,2.3l-0.2,3.1l-0.6,1.7l-1.7,0.6l-4,0.1L-149.8,408.8z"></path>
	</g>
</g>
<g class="st0-seasonal">
	<path class="st1-seasonal" d="M-425.5,457.5l-0.7-0.2l-0.8-0.3l-0.7-0.2l-1.8-0.8l-1.8-0.9l-1.8-1.6l-1.7-1.8l-1.8-3.6l-0.6-2.3l-0.2-3
		l0.4-3.5l0.4-1.7l1-2.3l0.8-1.2l1.1-1.4l1.8-1.6l1.2-0.9l3-1.4l4-0.8l2.5,0l0.8,0.1l0.8,0l3.9,1.3l2.8,1.8l1.1,1.2l0.5,0.8l0.6,0.7
		l0.4,0.7l0.5,0.7l0.2,0.9l0.3,0.7l0.2,0.9l-0.3,0.8l-0.7,0.3l-1.2,0.1l-1.1-0.1l-0.8,0l-0.9,0l-0.7,0.1l-0.9-0.5l-0.8-0.8l-0.5-0.6
		l-1.2-1.2l-0.6-0.5l-0.7-0.3l-1.3-0.4l-1.8-0.1l-2.8,0.4l-1.1,0.6l-1,0.8l-1,1.1l-0.4,0.8l-0.6,1.5l-0.3,1.6v2.5l0.1,0.9l0.2,0.7
		l0.3,0.6l0.3,0.8l0.9,1.4l1.2,1.1l1.4,0.7l1.5,0.5l1.2,0.1l2.2-0.1l1.4-0.8l0.6-0.2l0.7-0.6l0.9-1.1l0.4-0.8l0.7-0.7l0.9-0.5l0.8,0
		l0.8,0l0.8,0.1l2.3-0.2l0.8,0.5l0.2,0.7l-1.1,3.1l-0.9,1.5l-0.9,1.2l-1.1,1.1l-2,1.4l-0.7,0.3l-0.9,0.3l-0.7,0.4l-2.4,0.5l-2.9,0.2
		l-2.1-0.2L-425.5,457.5z"></path>
	<path class="st1-seasonal" d="M-392.7,457.7l-3.5-1l-0.8-0.3l-2.8-1.5l-0.5-0.6l-1.1-1.1l-1.9-2.6l-0.4-0.7l-0.2-0.9l-0.6-1.4l-0.5-2.6
		l0.2-4.8l0.3-1.8l0.8-2.3l0.4-0.7l1.4-2.1l1.1-1.2l1.3-0.9l0.6-0.5l2.1-1.3l1.6-0.4l0.7-0.3l0.8-0.2l0.8-0.2l2.9-0.2l1.9,0l5.4,1.7
		l2.1,1.3l1.8,1.6l0.5,0.7l0.5,0.5l0.5,0.7l0.3,0.7l0.7,1.4l0.2,0.9l0.3,0.9l0.3,1.5l0.2,2.8l-0.2,2.9l-0.2,0.9l-0.2,0.7l-0.1,0.8
		l-0.3,0.8l-1.6,2.8l-0.5,0.7l-2.9,2.8l-3.7,1.6l-1.6,0.5l-3.7,0.4L-392.7,457.7z M-389,450.5l0.8-0.2l0.7-0.1l0.7-0.4l0.7-0.3
		l1.3-1l0.5-0.7l0.4-0.6l0.5-0.6l0.4-1.7l0.2-2.1l-0.2-1.8l-0.3-0.7l-0.2-0.8l-0.3-0.7l-0.9-1.4l-1.3-0.9l-2.2-0.9l-2-0.1l-1.9,0.2
		l-0.9,0.2l-0.7,0.4l-1.2,0.8l-0.6,0.5l-0.5,0.7l-0.4,0.7l-0.5,0.6l-0.2,0.7l-0.3,1.5l0,1.2l0.2,2.1l0.8,2.3l0.5,0.6l0.4,0.6
		l1.3,1.1l1.4,0.7l0.7,0.1l0.8,0.3L-389,450.5z"></path>
	<path class="st1-seasonal" d="M-369.3,456.8l-0.5-0.9l0-9.1l-0.1-0.8l0.1-4.1l-0.1-0.8l0-6.6l-0.1-0.7l0.1-1.6l-0.1-2.5l0.5-0.9l0.9-0.4
		l1.1,0.3l0.9,0.7l1.1,1.1l0.7,0.6l1.1,1.3l0.6,0.5l3.7,4.1l0.9,0.8l0.7,0.9l0.6,0.6l0.5,0.7l0.9,0.3l0.7-0.5l2.5-2.5l0.5-0.7
		l3.6-3.7l0.6-0.7l0.5-0.5l0.5-0.7l1.7-1.8l0.9-0.5l1.2-0.4l0.9,0.5l0.5,0.9l-0.1,0.8l0,1.7l0,0.7l0.1,1.8l0,0.8l0,4.1l-0.1,0.9
		l0.1,12.3l-0.1,0.8l0.1,2.1l-0.5,1.2l-0.9,0.5l-5-0.2l-0.9-0.2l-0.3-0.9v-0.6l-0.1-1.8l0.1-0.7l-0.1-1.5l0.1-1.6l-0.1-1.6l0.1-2.3
		l-0.3-0.6l-0.5,0.2l-1.7,1.7l-0.6,0.4l-1.1,1.4l-0.5,0.5l-0.6,0.6l-0.8,0.6l-0.9,0l-0.9-0.6l-1.1-1.1l-0.5-0.7l-1.7-1.7l-0.5-0.6
		l-0.7-0.5l-0.4-0.2l-0.4,0.4v1.6l0.1,0.9l-0.1,1.5l0,0.9l-0.1,1.3l0.1,4.3l-0.5,0.7l-1.1,0.5l-1.3-0.1l-0.9,0.1l-1.6-0.1l-0.8,0.1
		L-369.3,456.8z"></path>
	<path class="st1-seasonal" d="M-324,457.3l-0.8,0.1l-0.9,0l-0.8-0.2l-1.7,0.1l-0.7,0l-0.9,0.1l-3,0l-1.2-0.5l-0.3-1.1l-0.1-0.9l0.1-2.8
		l-0.1-0.8l0.1-0.8l0-6.7l-0.1-0.7l0-3.4l0.1-0.8l-0.1-0.9l0.1-4l-0.1-0.9l0.1-1.7l-0.1-1.6l0.5-0.9l0.9-0.3l0.8,0l0.8-0.1l0.7,0.1
		l0.8-0.2l0.8,0.1l3.4-0.1l0.8,0.1l0.7,0l0.8,0.1l0.9-0.1l3.3,0l0.7,0.2h0.9l0.8,0.3l0.4,0.8l0.1,2.5l0,0.8l0,0.8l-0.4,0.7l-0.9,0.5
		l-0.8,0l-5.9-0.1l-0.8,0.2l-0.8,0l-0.9,0.3l-0.4,0.8v1.3l0.3,1.3l0.9,0.4l2.4-0.1l1.7,0.1l0.9-0.1h2.4l0.9,0.5l0.4,1.1l-0.1,3.7
		l-0.3,0.8l-0.8,0.3l-0.9,0l-0.8,0.1l-1.7,0l-1.6,0.1l-1.3-0.1l-1.2,0l-0.7,0.5l-0.4,0.9v2.6l0.3,0.7l0.9,0.4l0.9-0.1l0.8,0.1l0.9,0
		l0.8,0.1l1.4-0.2l2.1,0l0.8,0.1l0.9-0.1l0.9,0.4l0.5,0.8v4.1l-0.5,0.9l-0.9,0.4l-5.9,0.1L-324,457.3z"></path>
	<path class="st1-seasonal" d="M-277.5,457.3l-0.9-0.4l-0.8-0.6l-0.2-0.7l-0.4-0.8l-0.8-0.7l-0.9-0.5l-0.9,0.1l-0.7-0.1l-4,0l-0.7-0.1
		l-1.7,0.2l-0.8-0.1l-0.9,0.5l-0.8,0.8l-0.7,1.4l-0.8,0.7l-0.9,0.3l-2.3,0.1l-0.8-0.1l-1.6,0.1l-0.8-0.2l-0.2-1l0.2-0.8l0.8-1.6
		l0.2-0.7l0.5-0.6l0.6-1.6l0.7-1.3l0.3-0.8l0.4-0.6l0.2-0.9l4.2-8.8l0.2-0.7l0.5-0.8l0.2-0.8l0.5-0.6l1.6-3.8l0.4-0.6l0.3-0.8
		l0.4-0.7l0.7-0.7l1.3-0.5l1.4,0.4l0.7,0.7l0.8,1.4l0.2,0.7l0.5,0.7l0.2,0.8l2.7,5.7l0.3,0.9l0.9,1.5l0.2,0.7l0.4,0.6l0.2,0.9
		l0.4,0.8l0.4,0.6l1.6,3.7l0.8,1.5l0.6,1.5l1.1,2.1l0.6,1.5l0.3,0.9l-0.1,1l-1.1,0.2l-1.3,0l-0.8-0.1l-1.6,0.1L-277.5,457.3z
		 M-284.3,447.1l0.6-0.3l0.2-0.7l-1.9-4.5l-0.6-0.3l-0.5,0.4l-1.9,4.4l0,0.8l0.7,0.3l0.9-0.1l0.8,0.2L-284.3,447.1z"></path>
	<path class="st1-seasonal" d="M-246.4,456l-1.1-1.2l-6.4-6.3l-0.7-0.5l-0.5-0.6l-2.9-2.8l-0.5-0.7l-0.5-0.2l-0.3,0.7l-0.1,0.8l0,10.4
		l-0.4,1.3l-0.8,0.4l-0.9,0l-1.6-0.1l-0.9,0.1l-1.7-0.1l-0.9-0.3l-0.4-0.8l-0.1-3.4l0.1-0.8l-0.1-6.7l0.1-0.7l-0.1-1.7l0-0.7v-12.4
		l0.4-0.8l0.9-0.4l1.2,0.3l0.9,0.5l0.6,0.5l8.1,8.2l1.2,0.9l2.9,2.9l0.6,0.3l0.2-0.7l0.1-7.3l-0.1-0.9l0.1-1.7l-0.1-0.7l0-0.9
		l0.5-0.9l0.8-0.5l5.1,0l0.8,0.5l0.4,0.8l0.1,5.7l-0.1,1v4.1l0.1,0.7l-0.1,15l-0.4,0.8l-0.9,0.3l-1.2-0.1l-1.1-0.7L-246.4,456z"></path>
	<path class="st1-seasonal" d="M-227.1,457.2l-0.8,0.1l-5-0.1l-0.8,0.1l-0.8-0.4l-0.4-1.3v-2.1l-0.1-0.8l0-23l0.4-0.9l0.9-0.4l0.8,0l0.7-0.1
		l9.4,0.1l2.4,0.4l0.9,0.2l0.7,0.3l0.8,0.2l0.8,0.5l2.1,1.4l2.2,2.4l1.4,2.2l0.3,0.8l0.5,1.6l0.6,3.2l0,1.2l-0.1,1.3v0.9l-0.1,0.8
		l-0.2,0.7l-0.2,0.9l-0.2,0.8l-0.7,1.6l-0.5,0.7l-0.4,0.8l-2,2.6l-2.8,1.8l-1.9,0.8l-1.7,0.3l-1.2,0.4h-0.8l-1.3,0.2h-1.2
		L-227.1,457.2z M-224.3,450.6l1.8-0.2l1.2-0.4l1.4-0.9l1.5-1.7l0.7-1.5l0.4-2.9l-0.7-3.6l-0.4-0.7l-0.4-0.7l-0.6-0.7l-0.6-0.6
		l-0.6-0.5l-0.7-0.4l-1.6-0.5l-1.2-0.1l-1.7,0l-1.3,0.3l-0.4,0.9l-0.1,0.7l0.1,5.7l-0.2,2.1l0.2,2l0,1.7l0,0.7l0.3,0.8l0.9,0.5
		l0.8,0.1L-224.3,450.6z"></path>
	<path class="st1-seasonal" d="M-181.7,457.4l-2.3-0.4l-0.7-0.2l-2.8-1.6l-1.4-0.9l-1.6-1.7l-0.9-1.4l-0.7-1.4l-1.1-3.9l-0.2-2.9l0-1.3
		l0.7-4.1l1.5-3.1l0.5-0.6l0.6-0.6l0.5-0.7l1.8-1.6l2.3-1.4l3.2-1.1l0.8,0l0.7-0.2l0.8,0l3.8,0.2l1.9,0.5l0.9,0.2l2.9,1.5l0.6,0.5
		l0.7,0.6l0.9,0.7l1.6,2.4l0.4,0.7l0.6,1.7l-0.2,0.7l-1,0.5l-2-0.1l-1.2,0.2l-1.3,0l-1-0.3l-0.9-0.7l-0.5-0.7l-0.5-0.5l-0.8-0.5
		l-0.8-0.3l-1.5-0.4l-2.5,0.1l-0.7,0.3l-0.8,0.1l-0.7,0.4l-1.4,1l-1.3,1.9l-0.7,1.5l-0.3,1.6l0,2.4l0.2,1.3l0.3,1.2l0.8,1.5l0.5,0.6
		l1.2,1.1l2.2,0.9l2.1,0.2l1.1,0l1.6-0.4l1.4-0.5l0.6-0.5l0.6-0.7l0.4-0.7l-0.1-0.7l-0.6-0.3l-0.7-0.1l-2.1,0.2l-1.2-0.1l-0.7-0.5
		l-0.4-0.7v-3.9l0.4-0.8l0.8-0.4l1.6-0.1l2.5,0.2l5.5-0.1l0.9,0.1l0.9,0l0.8,0.4l0.4,0.7l0.1,1.6l-0.1,0.8v0.8l-0.2,0.7l0,0.7
		l-0.3,1.6l-0.8,2.4l-0.5,0.6l-0.4,0.7l-0.4,0.7l-0.5,0.6l-0.6,0.5l-0.6,0.7l-1.3,1l-2.9,1.5l-3.1,0.7h-4.1L-181.7,457.4z"></path>
	<path class="st1-seasonal" d="M-148.7,457.7l-3.5-1l-0.8-0.3l-2.8-1.5l-0.5-0.6l-1.1-1.1l-1.9-2.6l-0.4-0.7l-0.2-0.9l-0.6-1.4l-0.5-2.6
		l0.2-4.8l0.3-1.8l0.8-2.3l0.4-0.7l1.4-2.1l1.1-1.2l1.3-0.9l0.6-0.5l2.1-1.3l1.6-0.4l0.7-0.3l0.8-0.2l0.8-0.2l2.9-0.2l1.9,0l5.4,1.7
		l2.1,1.3l1.8,1.6l0.5,0.7l0.5,0.5l0.5,0.7l0.3,0.7l0.7,1.4l0.2,0.9l0.3,0.9l0.3,1.5l0.2,2.8l-0.2,2.9l-0.2,0.9l-0.2,0.7l-0.1,0.8
		l-0.3,0.8l-1.6,2.8l-0.5,0.7l-2.9,2.8l-3.7,1.6l-1.6,0.5l-3.7,0.4L-148.7,457.7z M-145,450.5l0.8-0.2l0.7-0.1l0.7-0.4l0.7-0.3
		l1.3-1l0.5-0.7l0.4-0.6l0.5-0.6l0.4-1.7l0.2-2.1l-0.2-1.8l-0.3-0.7l-0.2-0.8l-0.3-0.7l-0.9-1.4l-1.3-0.9l-2.2-0.9l-2-0.1l-1.9,0.2
		l-0.9,0.2l-0.7,0.4l-1.2,0.8l-0.6,0.5l-0.5,0.7l-0.4,0.7l-0.5,0.6l-0.2,0.7l-0.3,1.5l0,1.2l0.2,2.1l0.8,2.3l0.5,0.6l0.4,0.6
		l1.3,1.1l1.4,0.7l0.7,0.1l0.8,0.3L-145,450.5z"></path>
</g>
<line class="st2-seasonal" x1="-440.2" y1="309.3" x2="-128.9" y2="309.3"></line>
<g id="zig-zag">
<path class="st2-seasonal" d="M-127.1,472.6 -135.8,480.1 -144.5,472.6 -153.2,480.1 -161.9,472.6 -170.6,480.1 -179.3,472.6 
	-188,480.1 -196.7,472.6 -205.4,480.1 -214.1,472.6 -222.8,480.1 -231.5,472.6 -240.2,480.1 -248.9,472.6 -257.6,480.1 
	-266.3,472.6 -275,480.1 -283.7,472.6 -292.4,480.1 -301.1,472.6 -309.8,480.1 -318.5,472.6 -327.2,480.1 -335.9,472.6 
	-344.6,480.1 -353.3,472.6 -362,480.1 -370.7,472.6 -379.4,480.1 -388.1,472.6 -396.8,480.1 -405.5,472.6 -414.2,480.1 
	-422.9,472.6 -431.5,480.1 -440.2,472.6 " style="transition: stroke-dashoffset 1.5s ease-in 0s; stroke-dasharray: 413.439, 413.439; stroke-dashoffset: 826.878;"></path>
</g>
</svg>